<?xml version="1.0" standalone="no"?>
<!DOCTYPE svg PUBLIC "-//W3C//DTD SVG 20010904//EN"
 "http://www.w3.org/TR/2001/REC-SVG-20010904/DTD/svg10.dtd">
<svg version="1.0" xmlns="http://www.w3.org/2000/svg"
 width="300.000000pt" height="132.000000pt" viewBox="0 0 300.000000 132.000000"
 preserveAspectRatio="xMidYMid meet">
<metadata>
Created by potrace 1.10, written by Peter Selinger 2001-2011
</metadata>
<g transform="translate(0.000000,132.000000) scale(0.100000,-0.100000)"
fill="#000000" stroke="none">
<path d="M69 1270 c-44 -47 -78 -110 -59 -110 4 0 13 14 19 32 l11 31 353 -6
c193 -4 434 -7 533 -7 l182 0 6 -35 c6 -32 2 -42 -44 -100 -27 -35 -62 -88
-76 -119 -25 -55 -25 -56 -9 -117 8 -34 26 -83 39 -108 13 -25 27 -54 30 -63
9 -29 23 -21 43 27 16 40 43 62 43 35 0 -5 6 -10 14 -10 23 0 26 -27 5 -46
-13 -12 -19 -30 -19 -61 0 -30 -5 -45 -15 -49 -8 -4 -15 -12 -15 -20 0 -7 6
-11 14 -8 8 3 16 -3 19 -15 7 -28 43 -21 39 8 -2 11 2 21 8 21 7 0 9 12 6 32
-3 18 0 39 7 48 9 12 9 13 -3 3 -24 -22 -34 -14 -12 10 l21 22 -23 42 c-14 24
-20 46 -16 54 5 7 0 19 -13 30 -17 14 -19 18 -6 19 17 0 30 -21 51 -84 7 -21
19 -41 25 -43 7 -3 10 -9 7 -14 -3 -5 0 -9 7 -9 8 0 10 -13 6 -40 -3 -23 -1
-40 5 -40 5 0 6 4 3 10 -3 6 1 7 9 4 20 -8 20 -10 -4 -34 -18 -18 -24 -18 -21
3 0 4 -6 7 -14 7 -16 0 -16 -20 0 -32 6 -5 4 -8 -5 -8 -13 0 -13 -1 0 -10 9
-5 19 -5 26 1 8 7 14 6 19 -1 3 -5 0 -10 -8 -10 -8 0 -17 -7 -21 -15 -3 -8
-13 -15 -23 -15 -15 0 -16 -2 -3 -10 20 -13 43 -13 35 0 -3 6 1 7 9 4 9 -3 16
-1 16 5 0 6 7 8 15 5 8 -4 15 -1 15 5 0 6 -4 11 -10 11 -5 0 -10 6 -10 13 1 6
9 2 19 -9 16 -21 18 -21 29 -4 8 14 8 17 -5 16 -9 0 -17 6 -19 14 -2 8 -6 24
-9 36 -5 15 -2 21 10 21 11 0 15 -6 12 -19 -3 -11 4 -25 19 -37 13 -10 20 -21
17 -25 -3 -3 -2 -6 4 -6 17 0 23 41 7 47 -19 7 -18 33 1 33 9 0 18 7 22 16 3
8 12 13 19 10 8 -3 14 1 14 9 0 8 5 15 10 15 6 0 10 5 10 12 0 9 -3 9 -12 0
-17 -17 -28 -15 -28 7 0 40 81 26 117 -19 8 -10 12 -11 13 -3 0 13 -46 63 -59
63 -9 0 -7 52 3 68 4 7 1 12 -7 12 -10 0 -17 16 -22 48 -8 53 -37 106 -69 126
-30 19 -92 18 -130 -1 -39 -20 -85 -72 -86 -97 0 -10 -8 -25 -17 -32 -17 -13
-17 -15 0 -28 22 -17 22 -26 -3 -26 -13 0 -20 7 -20 18 0 11 -14 38 -30 61
l-31 42 36 76 c20 42 58 108 84 147 26 39 50 79 54 89 6 16 57 17 881 17 481
0 877 3 879 8 3 4 1 16 -4 27 -6 17 -8 17 -8 3 -1 -10 -9 -18 -18 -18 -16 0
-16 2 -3 11 15 10 5 9 -50 -8 -13 -4 -13 -4 0 6 11 8 2 10 -40 9 -54 -1 -54
-1 -15 -8 l40 -7 -42 -2 c-29 -1 -43 3 -43 12 0 9 -165 11 -802 8 -442 -2
-792 -6 -778 -10 l25 -7 -22 -12 c-12 -7 -43 -12 -68 -12 -38 0 -48 4 -52 20
-5 20 -14 20 -422 21 -229 1 -427 2 -441 3 -14 1 -61 3 -105 4 -80 3 -80 3
-53 19 15 10 30 23 32 30 10 25 -8 13 -55 -37z m918 -36 c-3 -3 -12 -4 -19 -1
-8 3 -5 6 6 6 11 1 17 -2 13 -5z m541 -1 c-16 -2 -40 -2 -55 0 -16 2 -3 4 27
4 30 0 43 -2 28 -4z m89 1 c-3 -3 -12 -4 -19 -1 -8 3 -5 6 6 6 11 1 17 -2 13
-5z m96 -1 c-13 -2 -33 -2 -45 0 -13 2 -3 4 22 4 25 0 35 -2 23 -4z m100 0
c-13 -2 -33 -2 -45 0 -13 2 -3 4 22 4 25 0 35 -2 23 -4z m135 0 c-15 -2 -42
-2 -60 0 -18 2 -6 4 27 4 33 0 48 -2 33 -4z m150 0 c-15 -2 -42 -2 -60 0 -18
2 -6 4 27 4 33 0 48 -2 33 -4z m355 0 c-56 -2 -151 -2 -210 0 -59 1 -13 3 102
3 116 0 164 -2 108 -3z m150 0 c-7 -2 -21 -2 -30 0 -10 3 -4 5 12 5 17 0 24
-2 18 -5z m65 0 c-10 -2 -26 -2 -35 0 -10 3 -2 5 17 5 19 0 27 -2 18 -5z m110
0 c-15 -2 -42 -2 -60 0 -18 2 -6 4 27 4 33 0 48 -2 33 -4z m-1620 -50 c-14
-18 2 -16 21 1 10 9 22 12 29 7 18 -11 -16 -49 -47 -53 -21 -2 -26 2 -32 29
-6 30 -4 32 17 31 17 -2 20 -5 12 -15z m-31 -126 c-19 -28 -38 -63 -42 -77 -4
-14 -13 -32 -20 -40 -28 -33 -25 -55 10 -110 34 -53 45 -90 26 -90 -5 0 -14
-12 -19 -27 l-9 -28 -26 52 c-15 28 -29 70 -33 92 -4 23 -11 44 -15 47 -11 6
-1 54 16 74 7 8 20 31 29 50 9 19 27 48 41 64 14 16 25 33 25 38 0 12 44 28
48 17 2 -5 -12 -33 -31 -62z m225 -131 c15 -4 30 -15 33 -26 4 -11 11 -17 17
-14 7 4 8 2 4 -4 -4 -7 1 -28 10 -47 9 -20 14 -39 10 -42 -3 -3 -6 1 -6 11 0
9 -8 20 -17 23 -26 10 -43 29 -43 47 0 9 -3 15 -7 15 -22 -4 -25 3 -7 17 18
14 18 15 -3 4 -17 -8 -23 -8 -23 1 0 6 -8 9 -19 6 -13 -3 -18 0 -15 8 3 7 13
11 22 9 9 -1 29 -5 44 -8z m-52 -31 c27 -14 60 -64 60 -92 0 -7 5 -13 10 -13
6 0 10 5 10 10 0 6 7 10 15 10 8 0 15 -3 15 -8 0 -16 -32 -52 -45 -52 -16 0
-40 -74 -30 -90 9 -15 25 -2 19 14 -3 8 -1 17 5 20 6 4 8 13 5 20 -3 8 0 17 7
22 7 4 10 3 5 -4 -3 -6 -1 -14 5 -18 7 -4 9 -3 5 4 -3 6 -2 13 3 16 16 10 37
-4 38 -24 1 -11 -2 -18 -7 -15 -4 3 -22 -20 -39 -50 -17 -30 -38 -55 -46 -55
-8 0 -15 3 -15 8 0 15 17 33 30 30 7 -2 14 2 17 8 2 7 -5 10 -22 7 -16 -4 -25
-1 -25 7 0 10 -4 9 -16 -1 -14 -11 -18 -10 -30 5 -12 17 -11 21 14 33 40 21
53 37 22 28 -14 -4 -31 -12 -37 -17 -22 -18 -40 -1 -58 52 -13 40 -14 54 -5
65 14 16 34 10 24 -7 -4 -7 -2 -8 4 -4 15 9 15 31 0 57 -11 17 -10 22 6 35 24
17 21 17 56 -1z m-63 -51 c-3 -3 -12 -4 -19 -1 -8 3 -5 6 6 6 11 1 17 -2 13
-5z m186 -83 c3 -13 1 -18 -9 -14 -7 2 -10 11 -7 19 7 19 10 18 16 -5z m37
-11 c0 -5 -4 -10 -10 -10 -5 0 -10 5 -10 10 0 6 5 10 10 10 6 0 10 -4 10 -10z
m-294 -106 c-4 -9 -1 -23 5 -30 9 -11 8 -18 -2 -30 -7 -9 -12 -30 -11 -47 l2
-32 -13 25 c-12 21 -12 28 -1 41 8 8 12 25 9 38 -4 22 3 51 12 51 3 0 2 -7 -1
-16z m152 -20 c2 -1 0 -10 -5 -18 -8 -14 -12 -13 -34 10 l-24 26 30 -8 c17 -4
32 -8 33 -10z m-23 -84 c3 -5 1 -10 -4 -10 -6 0 -11 5 -11 10 0 6 2 10 4 10 3
0 8 -4 11 -10z"/>
<path d="M1283 843 c9 -2 23 -2 30 0 6 3 -1 5 -18 5 -16 0 -22 -2 -12 -5z"/>
<path d="M1280 820 c0 -5 12 -10 26 -10 14 0 23 4 19 10 -3 6 -15 10 -26 10
-10 0 -19 -4 -19 -10z"/>
<path d="M1270 790 c0 -8 -8 -10 -25 -6 -20 5 -25 3 -25 -13 0 -11 5 -23 12
-27 7 -4 8 -3 4 4 -5 8 0 12 13 12 10 0 21 5 23 12 3 7 10 8 17 4 8 -5 9 -11
3 -15 -6 -4 -4 -11 4 -19 12 -11 14 -10 14 6 0 10 -9 27 -20 37 -13 12 -20 14
-20 5z"/>
<path d="M1326 774 c-5 -14 -4 -15 9 -4 17 14 19 20 6 20 -5 0 -12 -7 -15 -16z"/>
<path d="M1245 730 c-4 -6 3 -10 14 -10 25 0 27 6 6 13 -8 4 -17 2 -20 -3z"/>
<path d="M1371 674 c0 -11 3 -14 6 -6 3 7 2 16 -1 19 -3 4 -6 -2 -5 -13z"/>
<path d="M1129 1259 c-6 -3 3 -12 20 -18 32 -14 51 -8 51 15 0 15 -49 17 -71
3z"/>
<path d="M2255 1100 c-3 -5 -18 -7 -33 -4 -21 4 -24 3 -12 -5 13 -10 13 -11 0
-12 -8 -1 -19 -2 -25 -4 -5 -1 -16 -3 -24 -3 -7 -1 -11 -8 -7 -17 3 -9 0 -15
-10 -15 -12 0 -15 -6 -10 -26 5 -19 4 -24 -6 -19 -7 4 -1 -5 14 -18 15 -14 24
-28 20 -33 -4 -4 -2 -4 5 0 8 4 9 16 3 35 -8 30 -5 41 14 41 6 0 4 -5 -4 -10
-13 -8 -12 -10 3 -10 11 0 15 -4 11 -12 -4 -7 -3 -8 4 -4 7 4 12 14 12 21 0 9
6 12 15 9 8 -4 12 -11 8 -17 -3 -6 -1 -7 5 -3 17 10 62 -4 62 -19 0 -21 17
-27 39 -15 25 13 33 1 36 -54 4 -72 -24 -107 -115 -141 -8 -3 0 -3 19 0 42 6
101 42 101 60 0 8 15 30 34 49 48 48 55 102 18 144 -30 34 -101 74 -137 77 -5
0 -15 4 -22 8 -6 4 -14 3 -18 -3z m55 -41 c0 -5 6 -6 14 -3 7 3 16 -2 20 -11
4 -11 12 -14 27 -10 13 5 19 3 15 -3 -3 -5 1 -13 10 -16 8 -3 14 -11 13 -18
-2 -7 0 -23 5 -35 4 -13 3 -31 -3 -40 -10 -17 -10 -17 -12 0 -3 38 -18 77 -30
77 -5 0 -9 -4 -9 -10 0 -5 -7 -10 -15 -10 -18 0 -19 9 -2 24 7 6 10 10 8 9 -2
-2 -10 5 -17 15 -12 16 -13 16 -14 0 0 -25 -13 -29 -46 -12 -16 9 -44 16 -61
17 -18 1 -31 7 -30 12 5 13 29 14 46 1 12 -9 13 -7 8 7 -7 18 8 24 18 7 4 -6
11 -8 16 -4 5 3 7 9 4 14 -3 4 4 6 15 3 11 -3 20 -9 20 -14z m121 -86 c13 -16
12 -17 -3 -4 -17 13 -22 21 -14 21 2 0 10 -8 17 -17z"/>
<path d="M2281 1046 c-9 -10 -8 -15 2 -19 8 -3 13 3 14 14 2 23 -1 24 -16 5z"/>
<path d="M2982 1075 c0 -16 2 -22 5 -12 2 9 2 23 0 30 -3 6 -5 -1 -5 -18z"/>
<path d="M7 1073 c30 -87 140 -151 488 -288 174 -69 225 -116 280 -261 98
-256 171 -343 317 -380 68 -18 137 -14 228 13 30 9 61 15 69 14 7 -1 11 2 8 7
-4 4 8 9 26 9 18 1 91 4 163 8 199 12 288 -10 454 -107 112 -66 149 -78 241
-78 97 0 137 18 201 89 45 50 64 85 152 273 75 163 177 247 285 235 25 -2 53
-8 62 -11 13 -6 16 -2 11 19 -3 16 -8 22 -12 15 -5 -7 -22 -9 -48 -5 -56 8
-112 -9 -167 -51 -25 -19 -51 -32 -57 -28 -6 4 -8 3 -4 -4 3 -5 -4 -23 -17
-39 -34 -41 -77 -119 -70 -126 3 -4 -2 -9 -11 -13 -9 -3 -16 -16 -16 -29 0
-12 -6 -28 -14 -34 -7 -6 -11 -22 -8 -36 6 -32 1 -31 -66 6 l-55 32 -169 -6
c-144 -5 -169 -3 -164 9 3 8 1 14 -3 14 -5 0 -12 -32 -16 -70 l-7 -70 -42 0
c-62 0 -71 10 -56 56 7 22 16 43 20 48 5 5 6 15 3 22 -3 9 2 14 13 15 18 0 17
1 -1 9 -11 5 -14 9 -7 9 20 1 14 15 -14 28 -21 10 -24 10 -14 -2 15 -18 8 -87
-9 -93 -9 -3 -11 0 -6 7 13 22 13 65 -1 79 -12 11 -14 7 -16 -30 0 -24 0 -56
1 -73 1 -23 0 -27 -8 -15 -9 13 -11 13 -11 -2 0 -9 -3 -18 -8 -21 -4 -2 -1 -2
6 -1 6 2 12 -2 12 -9 0 -7 3 -23 7 -36 6 -22 5 -23 -9 -11 -9 8 -13 22 -10 30
3 9 -1 8 -10 -4 -15 -19 -15 -19 -37 3 -23 23 -19 46 5 37 8 -3 14 -1 14 5 0
7 -10 9 -24 5 -16 -4 -28 0 -37 12 -7 9 -9 14 -5 10 5 -4 15 -3 23 3 10 9 13
8 13 0 0 -7 5 -9 11 -5 8 4 7 9 -2 15 -11 6 -10 9 3 14 14 6 15 10 5 26 -6 10
-17 19 -24 19 -16 0 -17 -12 -2 -27 6 -6 8 -17 4 -23 -6 -9 -13 -6 -27 11 -14
18 -17 20 -11 5 5 -15 3 -17 -8 -11 -8 4 -11 5 -7 1 4 -5 2 -19 -3 -33 -8 -21
-7 -24 6 -19 8 3 15 1 15 -4 0 -6 -12 -10 -27 -10 -22 0 -25 -2 -13 -10 13 -8
12 -10 -2 -10 -12 0 -18 8 -18 21 0 12 4 17 11 13 6 -3 4 7 -4 22 -8 16 -17
56 -20 89 -4 33 -6 61 -7 63 -1 10 -17 -1 -17 -13 0 -8 4 -15 9 -15 4 0 8 -5
8 -11 0 -5 -4 -7 -10 -4 -5 3 -10 2 -10 -4 0 -5 5 -13 10 -16 6 -4 8 -10 5
-15 -3 -5 1 -25 9 -44 19 -46 11 -80 -18 -72 -11 3 -29 6 -38 6 -10 0 -18 5
-18 10 0 6 9 10 20 10 11 0 20 5 20 11 0 7 -9 9 -24 5 -15 -4 -28 0 -36 9 -10
13 -9 15 9 15 28 0 27 14 -5 35 -25 16 -25 16 -14 -7 11 -21 11 -22 -4 -8 -8
8 -18 31 -22 50 -4 24 -3 31 4 21 5 -7 15 -10 21 -7 15 9 -9 35 -26 29 -8 -3
-13 4 -13 20 0 26 -12 42 -24 30 -3 -3 -1 -13 6 -20 9 -11 9 -17 -3 -23 -11
-8 -15 -1 -20 28 -3 20 -7 29 -8 20 0 -10 -6 -18 -12 -18 -6 0 -8 8 -4 19 3
11 -1 24 -12 32 -15 12 -16 12 -8 -1 5 -8 8 -27 7 -42 -1 -15 2 -28 8 -28 5 0
6 -7 3 -17 -4 -10 -2 -14 4 -10 6 4 10 -5 11 -21 0 -15 2 -34 4 -41 2 -8 -11
-18 -30 -25 -27 -9 -30 -14 -20 -25 11 -11 9 -13 -12 -7 -14 3 -30 6 -37 6 -9
0 -11 15 -7 52 10 103 26 188 35 188 5 0 9 13 9 29 0 17 5 33 10 36 6 3 10 2
10 -3 0 -5 9 -12 20 -15 13 -3 20 0 20 10 0 8 -3 12 -7 10 -5 -3 -14 1 -21 9
-7 8 -9 14 -4 14 6 0 12 10 15 23 5 17 -2 13 -28 -18 -19 -22 -33 -46 -30 -53
6 -17 -23 -62 -41 -62 -8 0 -14 -5 -14 -11 0 -5 6 -7 13 -3 8 5 7 2 -2 -9 -8
-10 -11 -21 -7 -24 4 -4 11 -1 16 7 7 10 10 11 10 3 0 -7 -8 -21 -17 -31 -22
-23 -27 -42 -12 -42 8 0 9 -4 0 -13 -6 -8 -8 -17 -4 -20 12 -13 -37 -7 -111
13 -49 14 -97 20 -138 18 l-63 -3 -3 -37 c-2 -21 -7 -38 -13 -38 -5 0 -9 -12
-9 -27 -1 -35 -34 -100 -44 -85 -4 6 -3 29 3 49 5 21 8 53 7 71 -1 17 -3 48
-4 67 -1 19 -5 35 -9 35 -5 0 -8 -39 -8 -87 0 -49 -4 -101 -8 -116 l-8 -28
-29 21 c-25 18 -30 28 -30 65 0 24 4 55 9 69 7 18 6 28 -5 36 -7 7 -14 16 -14
21 0 11 60 42 85 43 15 1 19 7 17 26 -4 40 -89 207 -114 224 -31 22 -63 20
-79 -4 -16 -24 -98 -43 -84 -20 5 9 4 11 -3 6 -16 -10 -15 -14 8 -26 15 -8 28
-7 52 6 18 9 37 22 41 28 6 8 10 8 13 0 3 -7 13 -10 23 -7 16 4 41 -14 38 -27
-1 -3 13 -31 31 -62 18 -32 34 -66 35 -77 0 -11 5 -17 9 -15 4 3 8 -2 8 -10 0
-16 -57 -49 -70 -41 -10 6 -18 -17 -24 -62 -2 -19 1 -30 6 -27 5 4 8 -6 6 -20
-2 -15 -7 -26 -13 -26 -5 1 -9 9 -7 18 2 15 1 15 -8 -1 -13 -20 -27 -14 -41
16 -5 12 -13 29 -18 37 -19 32 -52 107 -70 160 -10 30 -22 63 -26 74 -7 15 -5
17 13 11 12 -3 22 -4 22 0 0 7 -52 29 -66 27 -5 -1 -21 15 -34 36 -14 22 -42
46 -72 61 -70 35 -80 50 -76 112 3 47 6 55 34 71 38 22 60 15 80 -23 13 -25
13 -29 0 -29 -8 0 -18 -5 -22 -11 -4 -8 3 -9 23 -5 42 10 57 -12 50 -72 -2
-26 -7 -54 -11 -62 -4 -9 1 -24 9 -35 11 -14 15 -16 14 -5 -3 37 2 57 16 57 8
0 15 -6 15 -14 0 -7 7 -13 15 -13 8 0 15 -5 15 -11 0 -6 7 -8 16 -5 22 8 40
-4 23 -15 -8 -5 -9 -9 -3 -9 15 0 39 29 31 37 -4 3 -17 7 -31 8 -35 4 -75 37
-74 60 3 32 -50 138 -63 129 -7 -4 -9 -3 -6 3 14 22 -63 68 -90 54 -10 -5 -26
-12 -35 -15 -24 -7 -57 -63 -64 -108 -6 -36 -17 -48 -28 -29 -3 4 -27 16 -53
26 -26 10 -71 29 -100 42 -28 12 -55 23 -59 23 -4 0 -36 14 -71 32 -66 33
-142 97 -162 136 -14 26 -33 30 -24 5z m526 -264 c-4 -4 -7 6 -7 24 3 54 7 64
11 23 3 -21 1 -42 -4 -47z m1081 -435 c3 -9 6 -24 6 -34 0 -9 7 -23 16 -31 10
-8 13 -21 9 -37 -4 -17 -2 -22 6 -16 8 4 9 3 5 -4 -4 -7 -15 -12 -24 -13 -11
0 -12 -3 -4 -6 20 -8 14 -19 -12 -18 -29 0 -48 15 -20 15 18 1 18 1 -1 12 -26
16 -45 19 -45 7 0 -5 5 -9 10 -9 6 0 10 -6 10 -12 0 -8 -15 -14 -35 -15 -29
-1 -35 2 -35 18 0 12 7 19 20 19 13 0 20 7 20 20 0 17 3 19 19 11 16 -9 20 -5
28 39 6 27 6 47 1 44 -10 -6 -11 10 -1 19 11 11 20 8 27 -9z m-444 -31 c0 -7
-7 -13 -15 -13 -8 0 -15 6 -15 13 0 8 7 14 15 14 8 0 15 -6 15 -14z m95 7 c4
-6 15 -8 26 -5 22 7 62 -3 55 -14 -3 -4 -24 -6 -48 -5 -24 1 -58 2 -75 3 -22
1 -33 6 -33 16 0 18 65 22 75 5z m183 -51 c-3 -8 -7 -3 -11 10 -4 17 -3 21 5
13 5 -5 8 -16 6 -23z m-28 -14 c0 -24 9 -29 50 -26 10 0 11 -1 3 -5 -9 -4 -10
-11 -4 -23 7 -13 5 -17 -10 -18 -10 -1 -19 2 -19 8 0 5 -5 9 -11 9 -5 0 -7 -5
-3 -12 5 -7 3 -8 -5 -3 -13 7 -81 -23 -81 -37 0 -4 -8 -7 -17 -7 -10 0 -45 -4
-78 -9 -43 -7 -62 -6 -67 2 -6 8 -8 7 -8 -1 0 -7 -9 -13 -20 -13 -11 0 -20 6
-21 13 0 10 -2 10 -6 0 -8 -22 -33 -14 -33 10 0 26 21 77 32 77 4 0 5 7 2 15
-16 41 -1 45 151 45 l145 0 0 -25z m-470 -32 c0 -26 -1 -26 -14 -7 -11 14 -11
21 -3 26 17 11 17 11 17 -19z m1532 4 c22 -11 42 -26 45 -34 5 -14 -35 -80
-72 -119 -29 -30 -89 -64 -113 -64 -11 0 -23 -4 -27 -9 -6 -11 -79 -4 -83 8
-2 5 -11 7 -21 4 -33 -8 -205 80 -198 102 4 10 11 12 59 14 20 1 29 8 37 32 6
18 11 43 11 57 0 21 4 24 28 20 15 -3 41 -2 57 2 17 4 77 7 133 7 83 0 112 -4
144 -20z m-802 -17 c0 -5 -5 -10 -11 -10 -5 0 -7 5 -4 10 3 6 8 10 11 10 2 0
4 -4 4 -10z m320 -81 c0 -5 -4 -9 -10 -9 -5 0 -10 7 -10 16 0 8 5 12 10 9 6
-3 10 -10 10 -16z"/>
<path d="M2206 964 c-9 -8 -16 -20 -16 -25 0 -5 -6 -9 -14 -9 -23 0 -24 -21
-4 -72 10 -27 18 -59 18 -73 0 -19 5 -25 21 -25 16 0 19 3 11 13 -8 10 -6 16
9 25 27 17 24 62 -7 107 l-26 39 24 18 c12 9 18 18 11 18 -6 0 -19 -7 -27 -16z
m7 -58 c6 -16 -1 -26 -19 -26 -10 0 -12 15 -5 38 3 8 20 0 24 -12z m21 -84
c-17 -25 -38 -28 -32 -4 3 12 1 23 -6 26 -7 3 -4 11 9 21 19 15 21 14 29 -5 6
-14 6 -27 0 -38z"/>
<path d="M1765 953 c-11 -2 -29 -6 -40 -8 -20 -4 -85 -85 -85 -105 0 -19 17
-10 30 15 7 14 20 25 29 25 9 0 12 -3 6 -8 -5 -4 -11 -41 -12 -82 -1 -41 -7
-76 -13 -78 -5 -2 -10 -8 -10 -13 0 -6 6 -7 13 -3 9 5 9 4 0 -6 -6 -7 -9 -19
-6 -26 4 -10 0 -12 -11 -8 -10 4 -15 13 -11 22 3 8 -2 23 -11 33 -14 15 -14
21 -4 34 7 9 10 18 6 22 -3 3 -6 0 -6 -7 0 -7 -3 -11 -6 -8 -3 4 2 18 12 32
19 31 17 37 -13 30 -17 -5 -19 -11 -13 -37 5 -27 2 -36 -24 -60 -17 -15 -25
-26 -17 -25 7 2 16 -3 18 -9 3 -7 -3 -13 -12 -13 -9 0 -14 -4 -11 -9 11 -16
48 0 41 18 -4 9 -7 18 -8 21 -1 3 3 6 8 7 6 1 9 -6 8 -15 -1 -10 0 -11 3 -4 3
6 10 12 15 12 6 0 6 -7 0 -19 -6 -10 -7 -21 -4 -25 3 -3 -6 -6 -20 -6 -15 0
-27 -5 -27 -11 0 -6 6 -9 14 -6 8 3 17 1 19 -6 3 -8 10 -5 20 8 8 11 19 17 23
13 4 -5 -4 -17 -17 -29 -23 -20 -23 -21 -5 -35 14 -10 23 -11 33 -3 9 8 23 6
52 -8 24 -12 37 -15 34 -7 -2 7 -13 14 -24 17 -16 4 -18 9 -10 30 6 16 6 28
-2 36 -19 19 -22 70 -9 168 7 60 15 78 32 78 4 0 17 11 27 24 15 19 22 21 28
11 5 -8 4 -11 -2 -7 -6 4 -13 -2 -16 -12 -3 -11 1 -22 9 -25 8 -3 11 0 7 10
-3 7 0 14 6 14 6 0 11 -5 11 -11 0 -6 9 -8 20 -4 11 4 20 2 20 -4 0 -6 -6 -11
-12 -11 -7 0 -2 -7 10 -16 12 -8 22 -22 22 -30 0 -19 -48 -114 -58 -114 -14 0
-41 -59 -29 -63 8 -2 6 -12 -6 -30 -10 -15 -14 -26 -10 -25 4 2 9 -1 10 -6 1
-5 7 -12 15 -17 10 -6 9 -11 -7 -23 -11 -9 -27 -16 -35 -16 -29 -2 24 -19 63
-19 20 -1 37 -6 37 -11 0 -6 -6 -10 -12 -9 -48 6 -50 -14 -5 -37 30 -16 31
-16 18 0 -17 21 -7 33 14 16 14 -12 14 -10 5 16 -6 16 -16 32 -23 36 -7 4 -3
10 13 17 14 5 18 10 10 10 -8 1 -21 10 -27 20 -10 17 -9 20 13 25 31 8 30 24
-2 59 -22 24 -25 32 -15 50 11 21 11 21 5 -2 -4 -16 -3 -21 5 -17 6 4 11 16
11 27 0 10 5 19 11 19 5 0 8 4 5 9 -3 5 1 14 9 21 8 7 14 24 13 39 -1 15 1 32
5 38 4 6 3 14 -3 18 -6 4 -8 10 -5 15 7 12 -85 80 -105 79 -8 -1 -24 -3 -35
-6z m-31 -37 c-3 -8 -13 -17 -22 -21 -13 -5 -13 -2 3 15 21 24 26 25 19 6z
m106 -7 c0 -6 -4 -7 -10 -4 -5 3 -10 11 -10 16 0 6 5 7 10 4 6 -3 10 -11 10
-16z m-6 -235 c9 -3 14 -10 11 -14 -3 -5 4 -11 15 -15 11 -3 20 -11 20 -16 0
-13 -18 -11 -23 4 -3 6 -10 -3 -17 -20 -13 -36 -25 -42 -34 -18 -9 23 4 44 22
38 15 -6 15 -4 0 14 -27 29 -24 39 6 27z m-124 -33 c0 -5 3 -17 6 -25 4 -12 2
-15 -9 -10 -8 3 -18 1 -22 -5 -15 -25 -22 -9 -9 19 15 29 34 41 34 21z m137
-89 c-9 -2 -15 -8 -12 -13 4 -5 -3 -9 -14 -9 -24 0 -26 5 -9 24 7 7 22 10 33
7 17 -4 18 -6 2 -9z"/>
<path d="M2335 930 c3 -5 8 -10 11 -10 2 0 4 5 4 10 0 6 -5 10 -11 10 -5 0 -7
-4 -4 -10z"/>
<path d="M2320 901 c0 -5 5 -13 10 -16 6 -3 10 -2 10 4 0 5 -4 13 -10 16 -5 3
-10 2 -10 -4z"/>
<path d="M645 880 c-3 -5 -2 -10 4 -10 5 0 13 5 16 10 3 6 2 10 -4 10 -5 0
-13 -4 -16 -10z"/>
<path d="M1744 860 c0 -13 4 -16 10 -10 7 7 7 13 0 20 -6 6 -10 3 -10 -10z"/>
<path d="M1780 870 c8 -5 20 -10 25 -10 6 0 3 5 -5 10 -8 5 -19 10 -25 10 -5
0 -3 -5 5 -10z"/>
<path d="M595 860 c-3 -5 1 -10 9 -10 9 0 16 5 16 10 0 6 -4 10 -9 10 -6 0
-13 -4 -16 -10z"/>
<path d="M1674 846 c-3 -8 -4 -25 -2 -38 3 -17 5 -13 9 15 5 38 2 47 -7 23z"/>
<path d="M1840 850 c8 -5 20 -10 25 -10 6 0 3 5 -5 10 -8 5 -19 10 -25 10 -5
0 -3 -5 5 -10z"/>
<path d="M601 839 c-13 -5 -22 -12 -19 -14 6 -6 58 12 58 20 0 7 -11 5 -39 -6z"/>
<path d="M1810 830 c8 -5 20 -10 25 -10 6 0 3 5 -5 10 -8 5 -19 10 -25 10 -5
0 -3 -5 5 -10z"/>
<path d="M2091 824 c0 -11 3 -14 6 -6 3 7 2 16 -1 19 -3 4 -6 -2 -5 -13z"/>
<path d="M690 823 c18 -8 11 -22 -19 -37 -33 -18 -48 -10 -26 14 13 14 13 17
1 17 -20 0 -27 -34 -10 -47 9 -9 20 -8 41 2 29 14 39 49 15 54 -7 1 -8 0 -2
-3z"/>
<path d="M2008 823 c7 -3 16 -2 19 1 4 3 -2 6 -13 5 -11 0 -14 -3 -6 -6z"/>
<path d="M1777 813 c-13 -12 -7 -23 12 -23 11 0 23 -5 26 -10 9 -14 25 -2 24
18 0 9 -3 12 -5 6 -3 -6 -17 -9 -32 -6 -24 5 -24 6 -7 13 15 6 16 8 4 8 -9 1
-19 -2 -22 -6z"/>
<path d="M2066 785 c20 -30 24 -31 17 -6 -3 11 -11 22 -19 25 -11 4 -11 0 2
-19z"/>
<path d="M2100 792 c0 -5 12 -19 27 -33 l26 -24 -23 33 c-25 33 -30 38 -30 24z"/>
<path d="M2370 757 c-19 -22 -29 -38 -22 -33 7 4 12 2 12 -4 0 -6 -13 -19 -30
-28 -16 -9 -30 -21 -30 -25 0 -5 13 0 29 9 26 16 89 110 79 119 -2 2 -19 -15
-38 -38z"/>
<path d="M2040 762 c27 -37 27 -36 27 -19 0 7 -11 21 -25 31 l-25 19 23 -31z"/>
<path d="M2982 770 c0 -14 2 -19 5 -12 2 6 2 18 0 25 -3 6 -5 1 -5 -13z"/>
<path d="M1592 760 c-17 -27 -15 -35 4 -16 8 9 14 21 12 26 -2 6 -9 1 -16 -10z"/>
<path d="M1661 754 c-14 -31 -14 -34 -1 -34 6 0 10 9 10 19 0 11 5 21 12 23 8
3 9 6 1 11 -5 3 -15 -5 -22 -19z"/>
<path d="M1955 743 c-3 -16 -16 -38 -27 -50 -12 -13 -17 -23 -11 -23 21 0 51
36 57 68 7 39 -9 43 -19 5z"/>
<path d="M1774 745 c22 -17 40 -20 32 -6 -3 5 -16 11 -28 14 -22 6 -22 5 -4
-8z"/>
<path d="M2080 735 c0 -8 7 -15 15 -15 8 0 15 4 15 9 0 5 -7 11 -15 15 -9 3
-15 0 -15 -9z"/>
<path d="M2232 741 l-23 -6 29 -28 29 -28 32 19 c28 17 30 21 16 32 -18 15
-51 19 -83 11z m73 -21 c4 -6 -5 -10 -19 -10 -14 0 -29 0 -33 -1 -4 0 -9 3
-10 8 -4 12 54 15 62 3z"/>
<path d="M1992 695 c0 -16 2 -22 5 -12 2 9 2 23 0 30 -3 6 -5 -1 -5 -18z"/>
<path d="M2053 713 c-18 -6 -18 -100 0 -100 9 0 12 11 10 31 -3 26 -2 28 6 11
9 -19 10 -19 10 3 1 14 -5 22 -15 22 -9 0 -14 6 -11 13 2 6 11 11 21 9 9 -2
16 -1 16 1 0 8 -25 14 -37 10z"/>
<path d="M2611 717 c2 -1 13 -9 24 -17 19 -14 19 -14 6 3 -7 9 -18 17 -24 17
-6 0 -8 -1 -6 -3z"/>
<path d="M750 698 c0 -9 5 -20 10 -23 13 -8 13 5 0 25 -8 13 -10 13 -10 -2z"/>
<path d="M2513 687 c10 -6 21 -26 26 -42 l9 -30 1 27 c1 27 -21 58 -42 58 -6
0 -3 -6 6 -13z"/>
<path d="M2505 650 c10 -11 20 -20 23 -20 3 0 -3 9 -13 20 -10 11 -20 20 -23
20 -3 0 3 -9 13 -20z"/>
<path d="M2012 640 c0 -14 2 -19 5 -12 2 6 2 18 0 25 -3 6 -5 1 -5 -13z"/>
<path d="M2168 653 c7 -3 16 -2 19 1 4 3 -2 6 -13 5 -11 0 -14 -3 -6 -6z"/>
<path d="M1911 641 c-13 -8 -13 -12 -1 -26 12 -15 14 -15 22 -1 21 37 62 1 52
-45 -4 -17 -3 -20 4 -10 13 18 21 3 28 -56 4 -33 3 -44 -4 -34 -6 8 -8 20 -5
27 2 7 0 21 -6 31 -9 15 -10 13 -11 -14 0 -18 -5 -33 -10 -33 -7 0 -8 -7 -3
-17 5 -10 8 -30 7 -45 0 -15 5 -29 12 -32 10 -4 14 3 14 23 0 16 7 34 15 41
11 9 13 23 9 54 -4 22 -8 54 -9 69 -1 20 -12 35 -38 52 -39 27 -54 30 -76 16z"/>
<path d="M2240 640 c-9 -6 -10 -10 -3 -10 6 0 15 5 18 10 8 12 4 12 -15 0z"/>
<path d="M1061 640 c-1 -3 6 -25 13 -50 11 -32 15 -38 15 -20 0 20 -28 89 -28
70z"/>
<path d="M906 605 c3 -16 13 -37 22 -45 14 -13 15 -13 5 0 -6 8 -15 29 -22 45
l-11 30 6 -30z"/>
<path d="M1211 604 c0 -11 3 -14 6 -6 3 7 2 16 -1 19 -3 4 -6 -2 -5 -13z"/>
<path d="M1943 614 c3 -4 2 -15 -4 -25 -6 -12 -6 -19 0 -19 5 0 12 6 14 13 4
9 6 9 6 -1 1 -7 -10 -23 -24 -36 -26 -24 -31 -36 -16 -36 5 0 13 10 16 21 6
17 9 19 16 8 4 -7 4 -16 0 -19 -5 -3 -5 -14 -1 -25 7 -18 8 -18 14 -2 14 40
15 47 5 52 -5 4 -7 10 -4 15 8 13 -6 60 -18 60 -6 0 -7 -3 -4 -6z"/>
<path d="M2511 600 c14 -31 19 -36 19 -24 0 6 -7 19 -16 30 -14 18 -14 18 -3
-6z"/>
<path d="M1442 585 c3 -5 8 -23 10 -40 3 -27 4 -28 10 -7 4 14 0 28 -10 40
-10 10 -14 13 -10 7z"/>
<path d="M1870 592 c0 -15 28 -23 36 -9 4 7 4 9 -1 5 -4 -4 -14 -3 -22 3 -8 7
-13 8 -13 1z"/>
<path d="M1390 568 c-12 -22 -12 -22 6 -6 10 10 15 20 12 24 -4 3 -12 -5 -18
-18z"/>
<path d="M1601 576 c-10 -12 -8 -17 8 -25 25 -14 48 -14 56 -1 3 5 -2 9 -12 8
-10 0 -26 0 -37 0 -15 2 -16 5 -6 17 7 8 10 15 7 15 -2 0 -10 -6 -16 -14z"/>
<path d="M2130 570 c14 -9 98 -15 89 -6 -2 2 -26 6 -54 10 -34 3 -45 2 -35 -4z"/>
<path d="M2552 560 c0 -14 2 -19 5 -12 2 6 2 18 0 25 -3 6 -5 1 -5 -13z"/>
<path d="M2293 563 c9 -2 23 -2 30 0 6 3 -1 5 -18 5 -16 0 -22 -2 -12 -5z"/>
<path d="M1541 534 c0 -11 3 -14 6 -6 3 7 2 16 -1 19 -3 4 -6 -2 -5 -13z"/>
<path d="M2278 543 c7 -3 16 -2 19 1 4 3 -2 6 -13 5 -11 0 -14 -3 -6 -6z"/>
<path d="M927 533 c-4 -3 -2 -12 4 -19 6 -7 14 -25 19 -41 7 -23 8 -24 9 -7 1
26 -23 76 -32 67z"/>
<path d="M1086 473 c1 -96 3 -110 12 -97 9 15 3 164 -7 164 -3 0 -6 -30 -5
-67z"/>
<path d="M1590 520 c0 -22 23 -53 33 -44 8 9 -8 57 -21 62 -7 2 -12 -6 -12
-18z m17 -12 c-3 -8 -6 -5 -6 6 -1 11 2 17 5 13 3 -3 4 -12 1 -19z"/>
<path d="M1674 526 c2 -18 26 -46 38 -46 5 0 2 7 -6 16 -9 8 -16 22 -16 30 0
8 -4 14 -9 14 -5 0 -8 -6 -7 -14z"/>
<path d="M1640 519 c-13 -8 -12 -12 5 -25 21 -16 32 -4 18 20 -6 11 -13 12
-23 5z"/>
<path d="M1727 523 c-10 -9 -9 -23 1 -23 5 0 9 7 9 15 0 17 -1 18 -10 8z"/>
<path d="M2195 520 c-3 -5 -1 -10 4 -10 6 0 11 5 11 10 0 6 -2 10 -4 10 -3 0
-8 -4 -11 -10z"/>
<path d="M2528 518 c8 -9 11 -21 8 -27 -4 -5 2 -12 13 -16 11 -3 22 -14 24
-23 3 -12 5 -11 6 6 1 13 -5 22 -14 22 -8 0 -15 6 -15 14 0 7 -8 20 -17 27
-16 13 -17 12 -5 -3z"/>
<path d="M1377 505 c-8 -20 -4 -29 11 -24 5 2 6 13 2 23 -6 19 -7 19 -13 1z"/>
<path d="M1896 509 c14 -24 38 -49 46 -49 13 0 -13 36 -35 49 -15 10 -18 10
-11 0z"/>
<path d="M1770 492 c0 -10 -5 -23 -11 -29 -6 -6 -9 -19 -6 -29 4 -16 5 -15 6
4 1 16 7 22 25 22 19 0 22 4 18 25 -5 29 -32 34 -32 7z"/>
<path d="M1566 491 c-4 -7 -5 -15 -2 -18 9 -9 19 4 14 18 -4 11 -6 11 -12 0z"/>
<path d="M1732 475 c-16 -16 -21 -29 -15 -39 6 -11 12 -5 25 25 9 21 16 39 15
39 -1 0 -12 -11 -25 -25z"/>
<path d="M2105 490 c-25 -5 -27 -7 -11 -13 10 -4 34 -3 52 3 19 6 38 9 44 5 5
-3 10 -1 10 5 0 11 -38 11 -95 0z"/>
<path d="M2240 492 c0 -6 23 -15 50 -22 28 -7 50 -16 50 -21 0 -5 5 -9 10 -9
23 0 8 18 -27 33 -56 23 -83 30 -83 19z"/>
<path d="M1509 461 c-2 -33 -4 -39 -11 -47 -15 -15 -8 -24 11 -14 13 7 19 20
19 40 -1 35 -17 52 -19 21z"/>
<path d="M1630 444 c0 -14 4 -23 9 -20 5 3 7 15 4 26 -7 28 -13 25 -13 -6z"/>
<path d="M1669 463 c-6 -34 -5 -53 3 -53 5 0 7 -4 3 -9 -3 -5 4 -13 16 -16 12
-4 18 -12 15 -21 -3 -7 1 -17 8 -21 7 -5 16 -15 20 -23 6 -14 4 -2 -13 65 -5
21 -13 29 -24 27 -18 -3 -24 23 -7 33 6 4 8 11 5 16 -7 11 -24 12 -26 2z"/>
<path d="M2046 441 c-20 -26 -20 -26 0 -8 12 9 29 17 39 17 10 0 15 3 11 7
-14 15 -32 9 -50 -16z"/>
<path d="M1821 452 c-1 -7 -6 -10 -12 -6 -8 4 -9 -1 -4 -17 8 -25 32 -48 50
-49 6 0 5 4 -2 8 -6 4 -16 23 -21 42 -6 19 -11 29 -11 22z"/>
<path d="M1900 440 c0 -13 5 -18 15 -14 8 4 15 10 15 14 0 4 -7 10 -15 14 -10
4 -15 -1 -15 -14z"/>
<path d="M1960 450 c0 -5 5 -10 11 -10 5 0 7 5 4 10 -3 6 -8 10 -11 10 -2 0
-4 -4 -4 -10z"/>
<path d="M2405 450 l-40 -7 35 -1 c19 0 44 3 55 8 24 10 7 10 -50 0z"/>
<path d="M1840 440 c0 -5 5 -10 11 -10 5 0 7 5 4 10 -3 6 -8 10 -11 10 -2 0
-4 -4 -4 -10z"/>
<path d="M1937 433 c-13 -47 -18 -95 -8 -89 5 3 12 -2 15 -11 3 -10 3 0 1 22
-2 22 0 47 5 55 8 12 10 10 11 -10 1 -17 3 -19 6 -8 2 10 -2 27 -10 39 -14 19
-15 20 -20 2z"/>
<path d="M2110 441 c0 -9 51 -34 57 -27 2 2 -10 11 -26 19 -17 9 -31 12 -31 8z"/>
<path d="M1866 425 c-9 -26 -7 -32 5 -12 6 10 9 21 6 23 -2 3 -7 -2 -11 -11z"/>
<path d="M1305 420 c3 -5 20 -11 38 -15 17 -4 41 -9 52 -11 17 -4 17 -3 4 5
-21 14 -100 31 -94 21z"/>
<path d="M2418 423 c6 -2 18 -2 25 0 6 3 1 5 -13 5 -14 0 -19 -2 -12 -5z"/>
<path d="M2598 423 c-19 -5 -24 -18 -10 -27 4 -2 13 4 20 15 7 10 11 18 10 18
-2 -1 -11 -3 -20 -6z"/>
<path d="M1780 394 c6 -14 8 -29 5 -34 -3 -5 -1 -11 4 -14 5 -4 13 -1 16 4 5
7 11 5 19 -6 7 -9 15 -13 19 -8 7 13 -15 39 -33 39 -10 0 -14 8 -13 23 2 14
-3 22 -12 22 -11 0 -12 -5 -5 -26z"/>
<path d="M2095 390 c-3 -6 1 -7 9 -4 18 7 21 14 7 14 -6 0 -13 -4 -16 -10z"/>
<path d="M2534 375 c3 -10 -1 -15 -12 -16 -13 0 -13 -2 -3 -6 8 -3 20 2 27 12
9 11 20 15 36 10 18 -5 20 -4 8 4 -24 17 -63 14 -56 -4z"/>
<path d="M2213 353 c15 -2 37 -2 50 0 12 2 0 4 -28 4 -27 0 -38 -2 -22 -4z"/>
<path d="M1490 341 c0 -6 5 -13 10 -16 6 -3 10 1 10 9 0 9 -4 16 -10 16 -5 0
-10 -4 -10 -9z"/>
<path d="M2308 343 c7 -3 16 -2 19 1 4 3 -2 6 -13 5 -11 0 -14 -3 -6 -6z"/>
<path d="M2393 343 c9 -2 25 -2 35 0 9 3 1 5 -18 5 -19 0 -27 -2 -17 -5z"/>
<path d="M1544 325 c-4 -8 -11 -12 -17 -8 -6 3 -7 1 -3 -5 9 -15 36 -4 36 14
0 18 -9 18 -16 -1z"/>
<path d="M2058 333 c6 -2 18 -2 25 0 6 3 1 5 -13 5 -14 0 -19 -2 -12 -5z"/>
<path d="M2348 333 c7 -3 16 -2 19 1 4 3 -2 6 -13 5 -11 0 -14 -3 -6 -6z"/>
<path d="M1786 314 c-8 -21 -8 -21 8 -21 8 0 11 8 8 19 -5 22 -8 23 -16 2z"/>
<path d="M2510 320 c-8 -5 -10 -10 -5 -10 6 0 17 5 25 10 8 5 11 10 5 10 -5 0
-17 -5 -25 -10z"/>
<path d="M2550 320 c0 -5 5 -10 10 -10 6 0 10 5 10 10 0 6 -4 10 -10 10 -5 0
-10 -4 -10 -10z"/>
<path d="M2050 300 c0 -5 7 -10 15 -10 8 0 15 5 15 10 0 6 -7 10 -15 10 -8 0
-15 -4 -15 -10z"/>
<path d="M1720 292 c0 -5 7 -13 16 -16 10 -4 14 -1 12 6 -5 15 -28 23 -28 10z"/>
</g>
</svg>
