<svg xmlns="http://www.w3.org/2000/svg" width="963.131" height="606.037" viewBox="0 0 963.131 606.037">
  <path id="Exclusion_5" data-name="Exclusion 5" d="M-5437.021,611.038c-8.532,0-17.512-.391-26.691-1.162-9.513-.8-19.557-2.034-29.852-3.669-10.627-1.688-21.869-3.857-33.412-6.449-11.875-2.666-24.449-5.862-37.373-9.5a173.108,173.108,0,0,1-38.046-15.769,257.125,257.125,0,0,1-36.914-25.1,349.625,349.625,0,0,1-34.567-32.2,416.835,416.835,0,0,1-31.006-37.074c-19.127-25.73-35.2-53.347-46.47-79.865a254.065,254.065,0,0,1-13.034-38.336,145.268,145.268,0,0,1-4.615-34.3,125.3,125.3,0,0,1,4.042-23.171,111.663,111.663,0,0,1,7.912-20.527A113.412,113.412,0,0,1-5745.6,265.8a129.736,129.736,0,0,1,14.664-15.937V199.756h54.056v15.668c10.416-4.777,21.647-9.256,34.335-13.693,11.316-3.957,23.549-7.793,37.4-11.726,25.743-7.312,53.428-13.887,80.2-20.246,6.98-1.658,14.2-3.372,21.4-5.1,15.973-3.918,28.233-9.743,38.582-18.332a99.58,99.58,0,0,0,12.594-12.691c3.853-4.561,7.458-9.385,11.274-14.493,10.9-14.585,23.251-31.113,46.318-47.914,26.641-19.4,62.851-35.646,110.7-49.657C-5246.532,10.574-5205.452,5-5161.979,5a533.751,533.751,0,0,1,55.915,2.994c18.051,1.909,36.311,4.748,54.272,8.436,17.361,3.565,34.618,7.96,51.292,13.061,16.245,4.97,32.049,10.645,46.975,16.868A415.914,415.914,0,0,1-4912.2,66.216a296.656,296.656,0,0,1,34.333,22.028,182.442,182.442,0,0,1,26.009,23.382,98.037,98.037,0,0,1,16.348,23.918,333.164,333.164,0,0,1,18.43,48.905,278.4,278.4,0,0,1,8.832,44.176c3.387,28.651,2.474,56.2,1.417,88.09-.342,10.312-.7,20.974-.919,32.268a155.286,155.286,0,0,1-8.65,27.825,185.4,185.4,0,0,1-14.765,28.308,206.6,206.6,0,0,1-20.926,27.5,221.451,221.451,0,0,1-27.131,25.4,243.433,243.433,0,0,1-73.062,39.321,283.88,283.88,0,0,1-46.022,11.338,331.067,331.067,0,0,1-52.411,4.067c-8.38,0-17-.3-25.629-.883-9.2-.46-18.282-.694-26.979-.694-88.961,0-137.467,23.621-183.3,49.937-3.057,1.755-6.174,3.561-8.924,5.154-20.211,11.706-39.3,22.764-61.659,31.068a211.87,211.87,0,0,1-36.262,9.972c-6.7,1.219-13.663,2.15-20.692,2.769C-5421.516,610.709-5429.207,611.038-5437.021,611.038Zm-259.047-296.8c-21.744,0-37.525,14.623-37.525,34.77s15.781,34.77,37.525,34.77,37.525-14.623,37.525-34.77S-5674.325,314.237-5696.068,314.237Zm294.406,49.684-5.891,14.155a38.014,38.014,0,0,0,10.426,3.705,62.209,62.209,0,0,0,13.134,1.425c8.447,0,15.436-1.819,20.211-5.26a16.454,16.454,0,0,0,5.011-5.6,14.149,14.149,0,0,0,1.663-6.714,14.855,14.855,0,0,0-2.182-8.227,13.95,13.95,0,0,0-5.462-4.746c-4.375-2.248-9.863-2.908-14.272-3.437a41.5,41.5,0,0,1-5.647-.907c-1.545-.436-2.265-1.031-2.265-1.873,0-.71.487-1.282,1.449-1.7a15.024,15.024,0,0,1,5.581-.772,30.622,30.622,0,0,1,15.011,3.8l5.89-14.155c-5.176-2.677-13.1-4.276-21.185-4.275-8.257,0-15.124,1.8-19.856,5.213a16.574,16.574,0,0,0-5.046,5.648,14.56,14.56,0,0,0-1.7,6.9,14.772,14.772,0,0,0,2.2,8.238,13.933,13.933,0,0,0,5.507,4.727c4.408,2.228,9.925,2.854,14.357,3.357a41.759,41.759,0,0,1,5.611.86c1.534.418,2.249,1,2.249,1.819a1.874,1.874,0,0,1-1.365,1.8,14.7,14.7,0,0,1-5.285.666A37.456,37.456,0,0,1-5401.662,363.92Zm-51.11-30.779v15.676h7.125v13.3c0,13.8,7.851,21.089,22.7,21.089,5.408,0,10.1-.978,13.2-2.754l-5.129-14.916a8.816,8.816,0,0,1-4.846,1.425c-2.712,0-4.464-1.976-4.464-5.034v-13.11h10.64V333.141h-10.64V318.606h-21.47v14.535Zm-30.591-3.8c-17.064,0-29.449,11.307-29.449,26.886,0,15.885,12.931,26.979,31.444,26.979,10.139,0,17.565-2.735,22.7-8.36l-11.208-11.3a19.37,19.37,0,0,1-4.917,2.862,16.518,16.518,0,0,1-5.915.938c-5.321,0-8.934-2.1-10.449-6.081h36.1c.027-.431.061-.895.1-1.386v-.024c.087-1.192.187-2.543.187-3.624C-5454.767,337.654-5469.129,329.341-5483.363,329.341Zm-106.114,3.8v15.676h7.125v13.3c0,13.8,7.852,21.089,22.705,21.089,5.407,0,10.1-.978,13.2-2.754l-5.13-14.916a8.811,8.811,0,0,1-4.844,1.425c-2.712,0-4.465-1.976-4.465-5.034v-13.11h10.64V333.141h-10.64V318.606h-21.47v14.535Zm-61.75-2.849V358.98c0,15.4,7.964,24.225,21.849,24.225a21.916,21.916,0,0,0,8-1.449,18.969,18.969,0,0,0,6.721-4.441v4.94h20.426V330.292h-21.47v24.415c0,3.563-.763,6.291-2.269,8.11a6.366,6.366,0,0,1-5.047,2.339,5.743,5.743,0,0,1-4.94-2.161c-1.214-1.611-1.8-4.136-1.8-7.719V330.292Zm110.2-18.525h0v70.489h21.47V311.767Zm21.28-98.426a24.516,24.516,0,0,0-17.635,7.173,24.761,24.761,0,0,0-5.437,8.458,30.837,30.837,0,0,0-2.008,11.255,30.947,30.947,0,0,0,2.008,11.269,24.927,24.927,0,0,0,5.438,8.49,24.457,24.457,0,0,0,17.635,7.22c6.452,0,11.113-1.709,14.25-5.224v4.274h20.425V195.767h-21.47v22.039C-5509.641,214.8-5513.96,213.341-5519.747,213.341Zm-59.756,0a36.421,36.421,0,0,0-12.135,1.983,28.652,28.652,0,0,0-9.561,5.546,24.9,24.9,0,0,0-6.266,8.5,26.378,26.378,0,0,0-2.249,10.854,26.471,26.471,0,0,0,2.249,10.868,25.057,25.057,0,0,0,6.266,8.535,28.671,28.671,0,0,0,9.561,5.578,36.2,36.2,0,0,0,12.135,2,36.358,36.358,0,0,0,12.175-2,28.55,28.55,0,0,0,9.557-5.578,24.99,24.99,0,0,0,6.243-8.535,26.587,26.587,0,0,0,2.235-10.868,26.494,26.494,0,0,0-2.235-10.854,24.831,24.831,0,0,0-6.243-8.5,28.531,28.531,0,0,0-9.557-5.546A36.583,36.583,0,0,0-5579.5,213.341Zm-64.41,0a36.421,36.421,0,0,0-12.135,1.983,28.654,28.654,0,0,0-9.561,5.546,24.908,24.908,0,0,0-6.266,8.5,26.385,26.385,0,0,0-2.249,10.854,26.478,26.478,0,0,0,2.249,10.868,25.057,25.057,0,0,0,6.266,8.535,28.668,28.668,0,0,0,9.561,5.578,36.2,36.2,0,0,0,12.135,2,36.362,36.362,0,0,0,12.175-2,28.55,28.55,0,0,0,9.557-5.578,24.98,24.98,0,0,0,6.243-8.535,26.585,26.585,0,0,0,2.236-10.868,26.492,26.492,0,0,0-2.236-10.854,24.834,24.834,0,0,0-6.243-8.5,28.536,28.536,0,0,0-9.557-5.546A36.583,36.583,0,0,0-5643.913,213.341Zm-87.02,36.522v16.393h22.42v-21.28h27.74V228.066H-5701.2c6.63-3.928,13.915-7.763,21.649-11.4h-28.961v11.4h7.312c-5.575,3.3-10.866,6.775-15.725,10.323A158.238,158.238,0,0,0-5730.933,249.863Zm51.381-33.2h2.675v-1.242C-5677.731,215.816-5678.632,216.234-5679.552,216.666Zm-16.516,148.966a14.3,14.3,0,0,1-10.556-4.43c-2.852-3.027-4.358-7.244-4.358-12.2s1.507-9.169,4.358-12.2a14.3,14.3,0,0,1,10.555-4.429,14.309,14.309,0,0,1,10.558,4.429c2.851,3.027,4.358,7.244,4.358,12.2s-1.507,9.169-4.358,12.2A14.31,14.31,0,0,1-5696.068,365.632Zm221.256-14.726h-16.721c.863-4.408,3.911-6.935,8.36-6.935a8.076,8.076,0,0,1,8.361,6.934Zm-39.805-100.42a7.765,7.765,0,0,1-6.009-2.6,11.374,11.374,0,0,1-2.447-7.659,11.21,11.21,0,0,1,2.447-7.612,7.81,7.81,0,0,1,6.009-2.553,7.811,7.811,0,0,1,6.008,2.553,11.213,11.213,0,0,1,2.447,7.612,11.377,11.377,0,0,1-2.447,7.659A7.764,7.764,0,0,1-5514.617,250.486Zm-64.886,0a7.764,7.764,0,0,1-6.008-2.6,11.375,11.375,0,0,1-2.446-7.659,11.211,11.211,0,0,1,2.446-7.612,7.809,7.809,0,0,1,6.008-2.553,7.811,7.811,0,0,1,6.009,2.553,11.21,11.21,0,0,1,2.446,7.612,11.374,11.374,0,0,1-2.446,7.659A7.765,7.765,0,0,1-5579.5,250.486Zm-64.41,0a7.765,7.765,0,0,1-6.009-2.6,11.374,11.374,0,0,1-2.447-7.659,11.21,11.21,0,0,1,2.447-7.612,7.81,7.81,0,0,1,6.009-2.553,7.811,7.811,0,0,1,6.009,2.553,11.21,11.21,0,0,1,2.446,7.612,11.374,11.374,0,0,1-2.446,7.659A7.765,7.765,0,0,1-5643.913,250.486Z" transform="translate(5769 -5)" fill="rgba(206,25,201,0.36)"/>
</svg>
