<svg xmlns="http://www.w3.org/2000/svg" width="169.048" height="3272.558" viewBox="0 0 169.048 3272.558">
  <defs>
    <style>
      .cls-1 {
        fill: #da251d;
      }

      .cls-2 {
        fill: #2d7dd2;
      }

      .cls-3 {
        fill: #45b43b;
      }

      .cls-4 {
        fill: #297edf;
      }

      .cls-5 {
        fill: #ffc300;
      }
    </style>
  </defs>
  <g id="Group_90" data-name="Group 90" transform="translate(-1807.276 -935.867)">
    <path id="Rectangle_92" data-name="Rectangle 92" class="cls-1" d="M8,4A4,4,0,0,0,4,8V91.747a4,4,0,0,0,4,4H91.746a4,4,0,0,0,4-4V8a4,4,0,0,0-4-4H8M8,0H91.746a8,8,0,0,1,8,8V91.747a8,8,0,0,1-8,8H8a8,8,0,0,1-8-8V8A8,8,0,0,1,8,0Z" transform="translate(1826.863 2581.025)"/>
    <path id="Rectangle_107" data-name="Rectangle 107" class="cls-1" d="M8,4A4,4,0,0,0,4,8V91.747a4,4,0,0,0,4,4H91.746a4,4,0,0,0,4-4V8a4,4,0,0,0-4-4H8M8,0H91.746a8,8,0,0,1,8,8V91.747a8,8,0,0,1-8,8H8a8,8,0,0,1-8-8V8A8,8,0,0,1,8,0Z" transform="matrix(0.454, 0.891, -0.891, 0.454, 1908.255, 1695.006)"/>
    <path id="Rectangle_91" data-name="Rectangle 91" class="cls-2" d="M8,4A4,4,0,0,0,4,8V67.959a4,4,0,0,0,4,4H67.959a4,4,0,0,0,4-4V8a4,4,0,0,0-4-4H8M8,0H67.959a8,8,0,0,1,8,8V67.959a8,8,0,0,1-8,8H8a8,8,0,0,1-8-8V8A8,8,0,0,1,8,0Z" transform="matrix(0.883, -0.469, 0.469, 0.883, 1809.974, 2660.712)"/>
    <path id="Rectangle_108" data-name="Rectangle 108" class="cls-3" d="M8,4A4,4,0,0,0,4,8V61.926a4,4,0,0,0,4,4H61.926a4,4,0,0,0,4-4V8a4,4,0,0,0-4-4H8M8,0H61.926a8,8,0,0,1,8,8V61.926a8,8,0,0,1-8,8H8a8,8,0,0,1-8-8V8A8,8,0,0,1,8,0Z" transform="translate(1932.727 1862.296) rotate(93)"/>
    <path id="Rectangle_96" data-name="Rectangle 96" class="cls-1" d="M8,4A4,4,0,0,0,4,8v99a4,4,0,0,0,4,4h99a4,4,0,0,0,4-4V8a4,4,0,0,0-4-4H8M8,0h99a8,8,0,0,1,8,8v99a8,8,0,0,1-8,8H8a8,8,0,0,1-8-8V8A8,8,0,0,1,8,0Z" transform="translate(1849.998 2213.268) rotate(20)"/>
    <path id="Rectangle_114" data-name="Rectangle 114" class="cls-1" d="M8,4A4,4,0,0,0,4,8V99.753a4,4,0,0,0,4,4H99.752a4,4,0,0,0,4-4V8a4,4,0,0,0-4-4H8M8,0H99.752a8,8,0,0,1,8,8V99.753a8,8,0,0,1-8,8H8a8,8,0,0,1-8-8V8A8,8,0,0,1,8,0Z" transform="translate(1861.887 1359.196) rotate(20)"/>
    <path id="Rectangle_93" data-name="Rectangle 93" class="cls-2" d="M8,4A4,4,0,0,0,4,8V85a4,4,0,0,0,4,4H85a4,4,0,0,0,4-4V8a4,4,0,0,0-4-4H8M8,0H85a8,8,0,0,1,8,8V85a8,8,0,0,1-8,8H8a8,8,0,0,1-8-8V8A8,8,0,0,1,8,0Z" transform="translate(1921.75 2419.72) rotate(83)"/>
    <path id="Rectangle_111" data-name="Rectangle 111" class="cls-3" d="M8,4A4,4,0,0,0,4,8V77.613a4,4,0,0,0,4,4H77.614a4,4,0,0,0,4-4V8a4,4,0,0,0-4-4H8M8,0H77.614a8,8,0,0,1,8,8V77.613a8,8,0,0,1-8,8H8a8,8,0,0,1-8-8V8A8,8,0,0,1,8,0Z" transform="matrix(-0.017, 1, -1, -0.017, 1951.658, 1583.188)"/>
    <path id="Rectangle_95" data-name="Rectangle 95" class="cls-3" d="M8,4A4,4,0,0,0,4,8V63.594a4,4,0,0,0,4,4H63.594a4,4,0,0,0,4-4V8a4,4,0,0,0-4-4H8M8,0H63.594a8,8,0,0,1,8,8V63.594a8,8,0,0,1-8,8H8a8,8,0,0,1-8-8V8A8,8,0,0,1,8,0Z" transform="translate(1870.852 2326.525) rotate(51)"/>
    <path id="Rectangle_113" data-name="Rectangle 113" class="cls-4" d="M8,4A4,4,0,0,0,4,8V53.541a4,4,0,0,0,4,4H53.541a4,4,0,0,0,4-4V8a4,4,0,0,0-4-4H8M8,0H53.541a8,8,0,0,1,8,8V53.541a8,8,0,0,1-8,8H8a8,8,0,0,1-8-8V8A8,8,0,0,1,8,0Z" transform="translate(1884.151 1457.232) rotate(51)"/>
    <path id="Rectangle_94" data-name="Rectangle 94" class="cls-5" d="M8,4A4,4,0,0,0,4,8V44.959a4,4,0,0,0,4,4H44.958a4,4,0,0,0,4-4V8a4,4,0,0,0-4-4H8M8,0H44.958a8,8,0,0,1,8,8V44.959a8,8,0,0,1-8,8H8a8,8,0,0,1-8-8V8A8,8,0,0,1,8,0Z" transform="translate(1845.208 2512.462) rotate(16)"/>
    <path id="Rectangle_109" data-name="Rectangle 109" class="cls-5" d="M8,4A4,4,0,0,0,4,8V56.234a4,4,0,0,0,4,4H56.234a4,4,0,0,0,4-4V8a4,4,0,0,0-4-4H8M8,0H56.234a8,8,0,0,1,8,8V56.234a8,8,0,0,1-8,8H8a8,8,0,0,1-8-8V8A8,8,0,0,1,8,0Z" transform="translate(1844.093 1640.541) rotate(16)"/>
    <path id="Rectangle_101" data-name="Rectangle 101" class="cls-3" d="M8,4A4,4,0,0,0,4,8V68.959a4,4,0,0,0,4,4H68.958a4,4,0,0,0,4-4V8a4,4,0,0,0-4-4H8M8,0H68.958a8,8,0,0,1,8,8V68.959a8,8,0,0,1-8,8H8a8,8,0,0,1-8-8V8A8,8,0,0,1,8,0Z" transform="translate(1873.376 2537.001) rotate(9)"/>
    <path id="Rectangle_110" data-name="Rectangle 110" class="cls-4" d="M8,4A4,4,0,0,0,4,8V58.152a4,4,0,0,0,4,4H58.152a4,4,0,0,0,4-4V8a4,4,0,0,0-4-4H8M8,0H58.152a8,8,0,0,1,8,8V58.152a8,8,0,0,1-8,8H8a8,8,0,0,1-8-8V8A8,8,0,0,1,8,0Z" transform="translate(1900.922 1617.759) rotate(29)"/>
    <path id="Rectangle_103" data-name="Rectangle 103" class="cls-1" d="M8,4A4,4,0,0,0,4,8V44.958a4,4,0,0,0,4,4H44.958a4,4,0,0,0,4-4V8a4,4,0,0,0-4-4H8M8,0H44.958a8,8,0,0,1,8,8V44.958a8,8,0,0,1-8,8H8a8,8,0,0,1-8-8V8A8,8,0,0,1,8,0Z" transform="translate(1890.929 2376.871) rotate(19)"/>
    <path id="Rectangle_112" data-name="Rectangle 112" class="cls-1" d="M8,4A4,4,0,0,0,4,8V65.434a4,4,0,0,0,4,4H65.434a4,4,0,0,0,4-4V8a4,4,0,0,0-4-4H8M8,0H65.434a8,8,0,0,1,8,8V65.434a8,8,0,0,1-8,8H8a8,8,0,0,1-8-8V8A8,8,0,0,1,8,0Z" transform="translate(1881.293 1501.392) rotate(19)"/>
    <path id="Rectangle_98" data-name="Rectangle 98" class="cls-3" d="M8,4A4,4,0,0,0,4,8V91.747a4,4,0,0,0,4,4H91.746a4,4,0,0,0,4-4V8a4,4,0,0,0-4-4H8M8,0H91.746a8,8,0,0,1,8,8V91.747a8,8,0,0,1-8,8H8a8,8,0,0,1-8-8V8A8,8,0,0,1,8,0Z" transform="matrix(-0.819, -0.574, 0.574, -0.819, 1888.983, 2245.359)"/>
    <path id="Rectangle_115" data-name="Rectangle 115" class="cls-4" d="M8,4A4,4,0,0,0,4,8V77.741a4,4,0,0,0,4,4H77.74a4,4,0,0,0,4-4V8a4,4,0,0,0-4-4H8M8,0H77.74a8,8,0,0,1,8,8V77.741a8,8,0,0,1-8,8H8a8,8,0,0,1-8-8V8A8,8,0,0,1,8,0Z" transform="matrix(-0.819, -0.574, 0.574, -0.819, 1899.737, 1401.52)"/>
    <path id="Rectangle_97" data-name="Rectangle 97" class="cls-2" d="M8,4A4,4,0,0,0,4,8V67.959a4,4,0,0,0,4,4H67.959a4,4,0,0,0,4-4V8a4,4,0,0,0-4-4H8M8,0H67.959a8,8,0,0,1,8,8V67.959a8,8,0,0,1-8,8H8a8,8,0,0,1-8-8V8A8,8,0,0,1,8,0Z" transform="matrix(0.883, -0.469, 0.469, 0.883, 1809.974, 2220.712)"/>
    <path id="Rectangle_116" data-name="Rectangle 116" class="cls-3" d="M8,4A4,4,0,0,0,4,8V67.959a4,4,0,0,0,4,4H67.958a4,4,0,0,0,4-4V8a4,4,0,0,0-4-4H8M8,0H67.958a8,8,0,0,1,8,8V67.959a8,8,0,0,1-8,8H8a8,8,0,0,1-8-8V8A8,8,0,0,1,8,0Z" transform="translate(1813.668 1326.128) rotate(-7)"/>
    <path id="Rectangle_105" data-name="Rectangle 105" class="cls-5" d="M8,4A4,4,0,0,0,4,8V77.458a4,4,0,0,0,4,4H77.458a4,4,0,0,0,4-4V8a4,4,0,0,0-4-4H8M8,0H77.458a8,8,0,0,1,8,8V77.458a8,8,0,0,1-8,8H8a8,8,0,0,1-8-8V8A8,8,0,0,1,8,0Z" transform="translate(1880.183 1905.806) rotate(-127)"/>
    <path id="Rectangle_122" data-name="Rectangle 122" class="cls-5" d="M8,4A4,4,0,0,0,4,8v99a4,4,0,0,0,4,4h99a4,4,0,0,0,4-4V8a4,4,0,0,0-4-4H8M8,0h99a8,8,0,0,1,8,8v99a8,8,0,0,1-8,8H8a8,8,0,0,1-8-8V8A8,8,0,0,1,8,0Z" transform="translate(1865.243 935.867) rotate(21)"/>
    <path id="Rectangle_100" data-name="Rectangle 100" class="cls-2" d="M8,4A4,4,0,0,0,4,8V72.053a4,4,0,0,0,4,4H72.054a4,4,0,0,0,4-4V8a4,4,0,0,0-4-4H8M8,0H72.054a8,8,0,0,1,8,8V72.053a8,8,0,0,1-8,8H8a8,8,0,0,1-8-8V8A8,8,0,0,1,8,0Z" transform="matrix(-0.469, 0.883, -0.883, -0.469, 1945.397, 2019.99)"/>
    <path id="Rectangle_119" data-name="Rectangle 119" class="cls-3" d="M8,4A4,4,0,0,0,4,8V72.053a4,4,0,0,0,4,4H72.054a4,4,0,0,0,4-4V8a4,4,0,0,0-4-4H8M8,0H72.054a8,8,0,0,1,8,8V72.053a8,8,0,0,1-8,8H8a8,8,0,0,1-8-8V8A8,8,0,0,1,8,0Z" transform="matrix(-0.469, 0.883, -0.883, -0.469, 1955.121, 1151.177)"/>
    <path id="Rectangle_104" data-name="Rectangle 104" class="cls-1" d="M8,4A4,4,0,0,0,4,8V46.094a4,4,0,0,0,4,4H46.094a4,4,0,0,0,4-4V8a4,4,0,0,0-4-4H8M8,0H46.094a8,8,0,0,1,8,8V46.094a8,8,0,0,1-8,8H8a8,8,0,0,1-8-8V8A8,8,0,0,1,8,0Z" transform="translate(1897.833 1913.748) rotate(41)"/>
    <path id="Rectangle_121" data-name="Rectangle 121" class="cls-1" d="M8,4A4,4,0,0,0,4,8V63.594a4,4,0,0,0,4,4H63.594a4,4,0,0,0,4-4V8a4,4,0,0,0-4-4H8M8,0H63.594a8,8,0,0,1,8,8V63.594a8,8,0,0,1-8,8H8a8,8,0,0,1-8-8V8A8,8,0,0,1,8,0Z" transform="translate(1896.694 1022.59) rotate(41)"/>
    <path id="Rectangle_99" data-name="Rectangle 99" class="cls-1" d="M8,4A4,4,0,0,0,4,8V44.959a4,4,0,0,0,4,4H44.958a4,4,0,0,0,4-4V8a4,4,0,0,0-4-4H8M8,0H44.958a8,8,0,0,1,8,8V44.959a8,8,0,0,1-8,8H8a8,8,0,0,1-8-8V8A8,8,0,0,1,8,0Z" transform="translate(1855.208 2047.462) rotate(16)"/>
    <path id="Rectangle_118" data-name="Rectangle 118" class="cls-1" d="M8,4A4,4,0,0,0,4,8V44.959a4,4,0,0,0,4,4H44.958a4,4,0,0,0,4-4V8a4,4,0,0,0-4-4H8M8,0H44.958a8,8,0,0,1,8,8V44.959a8,8,0,0,1-8,8H8a8,8,0,0,1-8-8V8A8,8,0,0,1,8,0Z" transform="translate(1864.932 1178.649) rotate(16)"/>
    <path id="Rectangle_102" data-name="Rectangle 102" class="cls-5" d="M8,4A4,4,0,0,0,4,8V68.959a4,4,0,0,0,4,4H68.958a4,4,0,0,0,4-4V8a4,4,0,0,0-4-4H8M8,0H68.958a8,8,0,0,1,8,8V68.959a8,8,0,0,1-8,8H8a8,8,0,0,1-8-8V8A8,8,0,0,1,8,0Z" transform="translate(1873.376 2082.001) rotate(9)"/>
    <path id="Rectangle_117" data-name="Rectangle 117" class="cls-5" d="M8,4A4,4,0,0,0,4,8V68.959a4,4,0,0,0,4,4H68.958a4,4,0,0,0,4-4V8a4,4,0,0,0-4-4H8M8,0H68.958a8,8,0,0,1,8,8V68.959a8,8,0,0,1-8,8H8a8,8,0,0,1-8-8V8A8,8,0,0,1,8,0Z" transform="translate(1883.1 1213.188) rotate(9)"/>
    <path id="Rectangle_106" data-name="Rectangle 106" class="cls-3" d="M8,4A4,4,0,0,0,4,8V44.959a4,4,0,0,0,4,4H44.958a4,4,0,0,0,4-4V8a4,4,0,0,0-4-4H8M8,0H44.958a8,8,0,0,1,8,8V44.959a8,8,0,0,1-8,8H8a8,8,0,0,1-8-8V8A8,8,0,0,1,8,0Z" transform="translate(1879.638 1976.697) rotate(-17)"/>
    <path id="Rectangle_120" data-name="Rectangle 120" class="cls-4" d="M8,4A4,4,0,0,0,4,8V37.522a4,4,0,0,0,4,4H37.522a4,4,0,0,0,4-4V8a4,4,0,0,0-4-4H8M8,0H37.522a8,8,0,0,1,8,8V37.522a8,8,0,0,1-8,8H8a8,8,0,0,1-8-8V8A8,8,0,0,1,8,0Z" transform="translate(1879.69 1108.482) rotate(-17)"/>
    <path id="Rectangle_132" data-name="Rectangle 132" class="cls-2" d="M8,4A4,4,0,0,0,4,8V91.747a4,4,0,0,0,4,4H91.746a4,4,0,0,0,4-4V8a4,4,0,0,0-4-4H8M8,0H91.746a8,8,0,0,1,8,8V91.747a8,8,0,0,1-8,8H8a8,8,0,0,1-8-8V8A8,8,0,0,1,8,0Z" transform="matrix(0.848, -0.53, 0.53, 0.848, 1823.171, 2885.719)"/>
    <path id="Rectangle_133" data-name="Rectangle 133" class="cls-1" d="M8,4A4,4,0,0,0,4,8V99.753a4,4,0,0,0,4,4H99.752a4,4,0,0,0,4-4V8a4,4,0,0,0-4-4H8M8,0H99.752a8,8,0,0,1,8,8V99.753a8,8,0,0,1-8,8H8a8,8,0,0,1-8-8V8A8,8,0,0,1,8,0Z" transform="translate(1916.467 3304.475) rotate(-160)"/>
    <path id="Rectangle_134" data-name="Rectangle 134" class="cls-3" d="M8,4A4,4,0,0,0,4,8V77.613a4,4,0,0,0,4,4H77.614a4,4,0,0,0,4-4V8a4,4,0,0,0-4-4H8M8,0H77.614a8,8,0,0,1,8,8V77.613a8,8,0,0,1-8,8H8a8,8,0,0,1-8-8V8A8,8,0,0,1,8,0Z" transform="translate(1861.43 3104.693) rotate(-119)"/>
    <path id="Rectangle_135" data-name="Rectangle 135" class="cls-4" d="M8,4A4,4,0,0,0,4,8V53.541a4,4,0,0,0,4,4H53.541a4,4,0,0,0,4-4V8a4,4,0,0,0-4-4H8M8,0H53.541a8,8,0,0,1,8,8V53.541a8,8,0,0,1-8,8H8a8,8,0,0,1-8-8V8A8,8,0,0,1,8,0Z" transform="matrix(-0.629, -0.777, 0.777, -0.629, 1894.204, 3206.438)"/>
    <path id="Rectangle_136" data-name="Rectangle 136" class="cls-5" d="M8,4A4,4,0,0,0,4,8V56.234a4,4,0,0,0,4,4H56.234a4,4,0,0,0,4-4V8a4,4,0,0,0-4-4H8M8,0H56.234a8,8,0,0,1,8,8V56.234a8,8,0,0,1-8,8H8a8,8,0,0,1-8-8V8A8,8,0,0,1,8,0Z" transform="matrix(-0.961, -0.276, 0.276, -0.961, 1934.261, 3023.129)"/>
    <path id="Rectangle_138" data-name="Rectangle 138" class="cls-5" d="M8,4A4,4,0,0,0,4,8V65.434a4,4,0,0,0,4,4H65.434a4,4,0,0,0,4-4V8a4,4,0,0,0-4-4H8M8,0H65.434a8,8,0,0,1,8,8V65.434a8,8,0,0,1-8,8H8a8,8,0,0,1-8-8V8A8,8,0,0,1,8,0Z" transform="translate(1897.062 3162.279) rotate(-161)"/>
    <path id="Rectangle_139" data-name="Rectangle 139" class="cls-2" d="M8,4A4,4,0,0,0,4,8V72.053a4,4,0,0,0,4,4H72.054a4,4,0,0,0,4-4V8a4,4,0,0,0-4-4H8M8,0H72.054a8,8,0,0,1,8,8V72.053a8,8,0,0,1-8,8H8a8,8,0,0,1-8-8V8A8,8,0,0,1,8,0Z" transform="matrix(0.469, 0.883, -0.883, 0.469, 1914.673, 2701.965)"/>
    <path id="Rectangle_140" data-name="Rectangle 140" class="cls-1" d="M8,4A4,4,0,0,0,4,8V44.959a4,4,0,0,0,4,4H44.958a4,4,0,0,0,4-4V8a4,4,0,0,0-4-4H8M8,0H44.958a8,8,0,0,1,8,8V44.959a8,8,0,0,1-8,8H8a8,8,0,0,1-8-8V8A8,8,0,0,1,8,0Z" transform="translate(1948.775 2817.927) rotate(164)"/>
    <path id="Rectangle_141" data-name="Rectangle 141" class="cls-5" d="M8,4A4,4,0,0,0,4,8V68.958a4,4,0,0,0,4,4H68.958a4,4,0,0,0,4-4V8a4,4,0,0,0-4-4H8M8,0H68.958a8,8,0,0,1,8,8V68.958a8,8,0,0,1-8,8H8a8,8,0,0,1-8-8V8A8,8,0,0,1,8,0Z" transform="translate(1928.05 2877.57) rotate(171)"/>
    <path id="Rectangle_142" data-name="Rectangle 142" class="cls-3" d="M8,4A4,4,0,0,0,4,8V44.958a4,4,0,0,0,4,4H44.958a4,4,0,0,0,4-4V8a4,4,0,0,0-4-4H8M8,0H44.958a8,8,0,0,1,8,8V44.958a8,8,0,0,1-8,8H8a8,8,0,0,1-8-8V8A8,8,0,0,1,8,0Z" transform="translate(1894.266 2746.9) rotate(-163)"/>
    <path id="Rectangle_169" data-name="Rectangle 169" class="cls-1" d="M8,4A4,4,0,0,0,4,8V91.747a4,4,0,0,0,4,4H91.746a4,4,0,0,0,4-4V8a4,4,0,0,0-4-4H8M8,0H91.746a8,8,0,0,1,8,8V91.747a8,8,0,0,1-8,8H8a8,8,0,0,1-8-8V8A8,8,0,0,1,8,0Z" transform="translate(1905.744 3660.997) rotate(62)"/>
    <path id="Rectangle_170" data-name="Rectangle 170" class="cls-3" d="M8,4A4,4,0,0,0,4,8V61.926a4,4,0,0,0,4,4H61.926a4,4,0,0,0,4-4V8a4,4,0,0,0-4-4H8M8,0H61.926a8,8,0,0,1,8,8V61.926a8,8,0,0,1-8,8H8a8,8,0,0,1-8-8V8A8,8,0,0,1,8,0Z" transform="translate(1925.184 3727.988) rotate(-133)"/>
    <path id="Rectangle_171" data-name="Rectangle 171" class="cls-1" d="M8,4A4,4,0,0,0,4,8V99.753a4,4,0,0,0,4,4H99.752a4,4,0,0,0,4-4V8a4,4,0,0,0-4-4H8M8,0H99.752a8,8,0,0,1,8,8V99.753a8,8,0,0,1-8,8H8a8,8,0,0,1-8-8V8A8,8,0,0,1,8,0Z" transform="translate(1909.695 4131.336) rotate(-160)"/>
    <path id="Rectangle_172" data-name="Rectangle 172" class="cls-3" d="M8,4A4,4,0,0,0,4,8V77.613a4,4,0,0,0,4,4H77.614a4,4,0,0,0,4-4V8a4,4,0,0,0-4-4H8M8,0H77.614a8,8,0,0,1,8,8V77.613a8,8,0,0,1-8,8H8a8,8,0,0,1-8-8V8A8,8,0,0,1,8,0Z" transform="translate(1819.924 3907.344) rotate(-89)"/>
    <path id="Rectangle_173" data-name="Rectangle 173" class="cls-4" d="M8,4A4,4,0,0,0,4,8V53.541a4,4,0,0,0,4,4H53.541a4,4,0,0,0,4-4V8a4,4,0,0,0-4-4H8M8,0H53.541a8,8,0,0,1,8,8V53.541a8,8,0,0,1-8,8H8a8,8,0,0,1-8-8V8A8,8,0,0,1,8,0Z" transform="matrix(-0.629, -0.777, 0.777, -0.629, 1887.432, 4033.3)"/>
    <path id="Rectangle_174" data-name="Rectangle 174" class="cls-5" d="M8,4A4,4,0,0,0,4,8V56.234a4,4,0,0,0,4,4H56.234a4,4,0,0,0,4-4V8a4,4,0,0,0-4-4H8M8,0H56.234a8,8,0,0,1,8,8V56.234a8,8,0,0,1-8,8H8a8,8,0,0,1-8-8V8A8,8,0,0,1,8,0Z" transform="matrix(-0.961, -0.276, 0.276, -0.961, 1927.489, 3849.99)"/>
    <path id="Rectangle_175" data-name="Rectangle 175" class="cls-4" d="M8,4A4,4,0,0,0,4,8V58.152a4,4,0,0,0,4,4H58.152a4,4,0,0,0,4-4V8a4,4,0,0,0-4-4H8M8,0H58.152a8,8,0,0,1,8,8V58.152a8,8,0,0,1-8,8H8a8,8,0,0,1-8-8V8A8,8,0,0,1,8,0Z" transform="translate(1885.262 3865.651) rotate(-171)"/>
    <path id="Rectangle_176" data-name="Rectangle 176" class="cls-1" d="M8,4A4,4,0,0,0,4,8V65.434a4,4,0,0,0,4,4H65.434a4,4,0,0,0,4-4V8a4,4,0,0,0-4-4H8M8,0H65.434a8,8,0,0,1,8,8V65.434a8,8,0,0,1-8,8H8a8,8,0,0,1-8-8V8A8,8,0,0,1,8,0Z" transform="translate(1890.289 3989.14) rotate(-161)"/>
    <path id="Rectangle_177" data-name="Rectangle 177" class="cls-3" d="M8,4A4,4,0,0,0,4,8V91.747a4,4,0,0,0,4,4H91.746a4,4,0,0,0,4-4V8a4,4,0,0,0-4-4H8M8,0H91.746a8,8,0,0,1,8,8V91.747a8,8,0,0,1-8,8H8a8,8,0,0,1-8-8V8A8,8,0,0,1,8,0Z" transform="matrix(0.819, 0.574, -0.574, 0.819, 1882.599, 3245.173)"/>
    <path id="Rectangle_178" data-name="Rectangle 178" class="cls-4" d="M8,4A4,4,0,0,0,4,8V77.741a4,4,0,0,0,4,4H77.74a4,4,0,0,0,4-4V8a4,4,0,0,0-4-4H8M8,0H77.74a8,8,0,0,1,8,8V77.741a8,8,0,0,1-8,8H8a8,8,0,0,1-8-8V8A8,8,0,0,1,8,0Z" transform="matrix(0.819, 0.574, -0.574, 0.819, 1871.846, 4089.012)"/>
    <path id="Rectangle_179" data-name="Rectangle 179" class="cls-3" d="M8,4A4,4,0,0,0,4,8V67.959a4,4,0,0,0,4,4H67.958a4,4,0,0,0,4-4V8a4,4,0,0,0-4-4H8M8,0H67.958a8,8,0,0,1,8,8V67.959a8,8,0,0,1-8,8H8a8,8,0,0,1-8-8V8A8,8,0,0,1,8,0Z" transform="translate(1957.915 4164.404) rotate(173)"/>
    <path id="Rectangle_180" data-name="Rectangle 180" class="cls-5" d="M8,4A4,4,0,0,0,4,8v99a4,4,0,0,0,4,4h99a4,4,0,0,0,4-4V8a4,4,0,0,0-4-4H8M8,0h99a8,8,0,0,1,8,8v99a8,8,0,0,1-8,8H8a8,8,0,0,1-8-8V8A8,8,0,0,1,8,0Z" transform="matrix(-0.966, 0.259, -0.259, -0.966, 1953.411, 3672.224)"/>
    <path id="Rectangle_181" data-name="Rectangle 181" class="cls-2" d="M8,4A4,4,0,0,0,4,8V72.053a4,4,0,0,0,4,4H72.054a4,4,0,0,0,4-4V8a4,4,0,0,0-4-4H8M8,0H72.054a8,8,0,0,1,8,8V72.053a8,8,0,0,1-8,8H8a8,8,0,0,1-8-8V8A8,8,0,0,1,8,0Z" transform="translate(1826.185 3470.542) rotate(-62)"/>
    <path id="Rectangle_182" data-name="Rectangle 182" class="cls-1" d="M8,4A4,4,0,0,0,4,8V63.594a4,4,0,0,0,4,4H63.594a4,4,0,0,0,4-4V8a4,4,0,0,0-4-4H8M8,0H63.594a8,8,0,0,1,8,8V63.594a8,8,0,0,1-8,8H8a8,8,0,0,1-8-8V8A8,8,0,0,1,8,0Z" transform="translate(1884.612 3599.128) rotate(-139)"/>
    <path id="Rectangle_183" data-name="Rectangle 183" class="cls-1" d="M8,4A4,4,0,0,0,4,8V44.959a4,4,0,0,0,4,4H44.958a4,4,0,0,0,4-4V8a4,4,0,0,0-4-4H8M8,0H44.958a8,8,0,0,1,8,8V44.959a8,8,0,0,1-8,8H8a8,8,0,0,1-8-8V8A8,8,0,0,1,8,0Z" transform="matrix(-0.961, -0.276, 0.276, -0.961, 1916.374, 3443.07)"/>
    <path id="Rectangle_184" data-name="Rectangle 184" class="cls-5" d="M8,4A4,4,0,0,0,4,8V68.959a4,4,0,0,0,4,4H68.958a4,4,0,0,0,4-4V8a4,4,0,0,0-4-4H8M8,0H68.958a8,8,0,0,1,8,8V68.959a8,8,0,0,1-8,8H8a8,8,0,0,1-8-8V8A8,8,0,0,1,8,0Z" transform="translate(1898.206 3408.531) rotate(-171)"/>
    <path id="Rectangle_185" data-name="Rectangle 185" class="cls-3" d="M8,4A4,4,0,0,0,4,8V44.959a4,4,0,0,0,4,4H44.958a4,4,0,0,0,4-4V8a4,4,0,0,0-4-4H8M8,0H44.958a8,8,0,0,1,8,8V44.959a8,8,0,0,1-8,8H8a8,8,0,0,1-8-8V8A8,8,0,0,1,8,0Z" transform="translate(1891.944 3513.835) rotate(163)"/>
  </g>
</svg>
