<svg xmlns="http://www.w3.org/2000/svg" width="184.121" height="4175.415" viewBox="0 0 184.121 4175.415">
  <defs>
    <style>
      .cls-1 {
        fill: #ffc300;
      }

      .cls-2 {
        fill: #2d7dd2;
      }

      .cls-3 {
        fill: #da251d;
      }

      .cls-4 {
        fill: #45b43b;
      }

      .cls-5 {
        fill: #297edf;
      }
    </style>
  </defs>
  <g id="Group_89" data-name="Group 89" transform="translate(59.378 -12.996)">
    <path id="Rectangle_126" data-name="Rectangle 126" class="cls-1" d="M8,4A4,4,0,0,0,4,8v99a4,4,0,0,0,4,4h99a4,4,0,0,0,4-4V8a4,4,0,0,0-4-4H8M8,0h99a8,8,0,0,1,8,8v99a8,8,0,0,1-8,8H8a8,8,0,0,1-8-8V8A8,8,0,0,1,8,0Z" transform="matrix(-0.966, 0.259, -0.259, -0.966, 106.876, 364.74)"/>
    <path id="Rectangle_127" data-name="Rectangle 127" class="cls-2" d="M8,4A4,4,0,0,0,4,8V72.053a4,4,0,0,0,4,4H72.054a4,4,0,0,0,4-4V8a4,4,0,0,0-4-4H8M8,0H72.054a8,8,0,0,1,8,8V72.053a8,8,0,0,1-8,8H8a8,8,0,0,1-8-8V8A8,8,0,0,1,8,0Z" transform="translate(-20.349 163.057) rotate(-62)"/>
    <path id="Rectangle_128" data-name="Rectangle 128" class="cls-3" d="M8,4A4,4,0,0,0,4,8V63.594a4,4,0,0,0,4,4H63.594a4,4,0,0,0,4-4V8a4,4,0,0,0-4-4H8M8,0H63.594a8,8,0,0,1,8,8V63.594a8,8,0,0,1-8,8H8a8,8,0,0,1-8-8V8A8,8,0,0,1,8,0Z" transform="translate(38.078 291.643) rotate(-139)"/>
    <path id="Rectangle_129" data-name="Rectangle 129" class="cls-3" d="M8,4A4,4,0,0,0,4,8V44.959a4,4,0,0,0,4,4H44.958a4,4,0,0,0,4-4V8a4,4,0,0,0-4-4H8M8,0H44.958a8,8,0,0,1,8,8V44.959a8,8,0,0,1-8,8H8a8,8,0,0,1-8-8V8A8,8,0,0,1,8,0Z" transform="matrix(-0.961, -0.276, 0.276, -0.961, 69.839, 135.585)"/>
    <path id="Rectangle_130" data-name="Rectangle 130" class="cls-1" d="M8,4A4,4,0,0,0,4,8V68.959a4,4,0,0,0,4,4H68.958a4,4,0,0,0,4-4V8a4,4,0,0,0-4-4H8M8,0H68.958a8,8,0,0,1,8,8V68.959a8,8,0,0,1-8,8H8a8,8,0,0,1-8-8V8A8,8,0,0,1,8,0Z" transform="translate(51.671 101.046) rotate(-171)"/>
    <path id="Rectangle_131" data-name="Rectangle 131" class="cls-4" d="M8,4A4,4,0,0,0,4,8V44.959a4,4,0,0,0,4,4H44.958a4,4,0,0,0,4-4V8a4,4,0,0,0-4-4H8M8,0H44.958a8,8,0,0,1,8,8V44.959a8,8,0,0,1-8,8H8a8,8,0,0,1-8-8V8A8,8,0,0,1,8,0Z" transform="translate(45.41 206.35) rotate(163)"/>
    <path id="Rectangle_59" data-name="Rectangle 59" class="cls-3" d="M8,4A4,4,0,0,0,4,8V91.747a4,4,0,0,0,4,4H91.746a4,4,0,0,0,4-4V8a4,4,0,0,0-4-4H8M8,0H91.746a8,8,0,0,1,8,8V91.747a8,8,0,0,1-8,8H8a8,8,0,0,1-8-8V8A8,8,0,0,1,8,0Z" transform="translate(-6.609 1026.898)"/>
    <path id="Rectangle_75" data-name="Rectangle 75" class="cls-3" d="M8,4A4,4,0,0,0,4,8V91.747a4,4,0,0,0,4,4H91.746a4,4,0,0,0,4-4V8a4,4,0,0,0-4-4H8M8,0H91.746a8,8,0,0,1,8,8V91.747a8,8,0,0,1-8,8H8a8,8,0,0,1-8-8V8A8,8,0,0,1,8,0Z" transform="translate(54.162 1878.136) rotate(62)"/>
    <path id="Rectangle_60" data-name="Rectangle 60" class="cls-2" d="M8,4A4,4,0,0,0,4,8V67.959a4,4,0,0,0,4,4H67.958a4,4,0,0,0,4-4V8a4,4,0,0,0-4-4H8M8,0H67.958a8,8,0,0,1,8,8V67.959a8,8,0,0,1-8,8H8a8,8,0,0,1-8-8V8A8,8,0,0,1,8,0Z" transform="matrix(-0.883, 0.469, -0.469, -0.883, 110.026, 1046.959)"/>
    <path id="Rectangle_76" data-name="Rectangle 76" class="cls-4" d="M8,4A4,4,0,0,0,4,8V61.926a4,4,0,0,0,4,4H61.926a4,4,0,0,0,4-4V8a4,4,0,0,0-4-4H8M8,0H61.926a8,8,0,0,1,8,8V61.926a8,8,0,0,1-8,8H8a8,8,0,0,1-8-8V8A8,8,0,0,1,8,0Z" transform="translate(73.602 1945.127) rotate(-133)"/>
    <path id="Rectangle_61" data-name="Rectangle 61" class="cls-3" d="M8,4A4,4,0,0,0,4,8v99a4,4,0,0,0,4,4h99a4,4,0,0,0,4-4V8a4,4,0,0,0-4-4H8M8,0h99a8,8,0,0,1,8,8v99a8,8,0,0,1-8,8H8a8,8,0,0,1-8-8V8A8,8,0,0,1,8,0Z" transform="translate(70.002 1494.403) rotate(-160)"/>
    <path id="Rectangle_82" data-name="Rectangle 82" class="cls-3" d="M8,4A4,4,0,0,0,4,8V99.753a4,4,0,0,0,4,4H99.752a4,4,0,0,0,4-4V8a4,4,0,0,0-4-4H8M8,0H99.752a8,8,0,0,1,8,8V99.753a8,8,0,0,1-8,8H8a8,8,0,0,1-8-8V8A8,8,0,0,1,8,0Z" transform="translate(58.112 2348.475) rotate(-160)"/>
    <path id="Rectangle_62" data-name="Rectangle 62" class="cls-2" d="M8,4A4,4,0,0,0,4,8V85a4,4,0,0,0,4,4H85a4,4,0,0,0,4-4V8a4,4,0,0,0-4-4H8M8,0H85a8,8,0,0,1,8,8V85a8,8,0,0,1-8,8H8a8,8,0,0,1-8-8V8A8,8,0,0,1,8,0Z" transform="translate(-1.75 1287.951) rotate(-97)"/>
    <path id="Rectangle_79" data-name="Rectangle 79" class="cls-4" d="M8,4A4,4,0,0,0,4,8V77.613a4,4,0,0,0,4,4H77.614a4,4,0,0,0,4-4V8a4,4,0,0,0-4-4H8M8,0H77.614a8,8,0,0,1,8,8V77.613a8,8,0,0,1-8,8H8a8,8,0,0,1-8-8V8A8,8,0,0,1,8,0Z" transform="translate(-31.658 2124.483) rotate(-89)"/>
    <path id="Rectangle_63" data-name="Rectangle 63" class="cls-4" d="M8,4A4,4,0,0,0,4,8V63.594a4,4,0,0,0,4,4H63.594a4,4,0,0,0,4-4V8a4,4,0,0,0-4-4H8M8,0H63.594a8,8,0,0,1,8,8V63.594a8,8,0,0,1-8,8H8a8,8,0,0,1-8-8V8A8,8,0,0,1,8,0Z" transform="matrix(-0.629, -0.777, 0.777, -0.629, 49.148, 1381.146)"/>
    <path id="Rectangle_81" data-name="Rectangle 81" class="cls-5" d="M8,4A4,4,0,0,0,4,8V53.541a4,4,0,0,0,4,4H53.541a4,4,0,0,0,4-4V8a4,4,0,0,0-4-4H8M8,0H53.541a8,8,0,0,1,8,8V53.541a8,8,0,0,1-8,8H8a8,8,0,0,1-8-8V8A8,8,0,0,1,8,0Z" transform="matrix(-0.629, -0.777, 0.777, -0.629, 35.849, 2250.439)"/>
    <path id="Rectangle_64" data-name="Rectangle 64" class="cls-1" d="M8,4A4,4,0,0,0,4,8V44.959a4,4,0,0,0,4,4H44.958a4,4,0,0,0,4-4V8a4,4,0,0,0-4-4H8M8,0H44.958a8,8,0,0,1,8,8V44.959a8,8,0,0,1-8,8H8a8,8,0,0,1-8-8V8A8,8,0,0,1,8,0Z" transform="matrix(-0.961, -0.276, 0.276, -0.961, 72.882, 1217.063)"/>
    <path id="Rectangle_77" data-name="Rectangle 77" class="cls-1" d="M8,4A4,4,0,0,0,4,8V56.234a4,4,0,0,0,4,4H56.234a4,4,0,0,0,4-4V8a4,4,0,0,0-4-4H8M8,0H56.234a8,8,0,0,1,8,8V56.234a8,8,0,0,1-8,8H8a8,8,0,0,1-8-8V8A8,8,0,0,1,8,0Z" transform="matrix(-0.961, -0.276, 0.276, -0.961, 75.906, 2067.129)"/>
    <path id="Rectangle_65" data-name="Rectangle 65" class="cls-4" d="M8,4A4,4,0,0,0,4,8V68.959a4,4,0,0,0,4,4H68.958a4,4,0,0,0,4-4V8a4,4,0,0,0-4-4H8M8,0H68.958a8,8,0,0,1,8,8V68.959a8,8,0,0,1-8,8H8a8,8,0,0,1-8-8V8A8,8,0,0,1,8,0Z" transform="translate(46.623 1170.67) rotate(-171)"/>
    <path id="Rectangle_78" data-name="Rectangle 78" class="cls-5" d="M8,4A4,4,0,0,0,4,8V58.152a4,4,0,0,0,4,4H58.152a4,4,0,0,0,4-4V8a4,4,0,0,0-4-4H8M8,0H58.152a8,8,0,0,1,8,8V58.152a8,8,0,0,1-8,8H8a8,8,0,0,1-8-8V8A8,8,0,0,1,8,0Z" transform="translate(33.679 2082.79) rotate(-171)"/>
    <path id="Rectangle_66" data-name="Rectangle 66" class="cls-3" d="M8,4A4,4,0,0,0,4,8V44.959a4,4,0,0,0,4,4H44.958a4,4,0,0,0,4-4V8a4,4,0,0,0-4-4H8M8,0H44.958a8,8,0,0,1,8,8V44.959a8,8,0,0,1-8,8H8a8,8,0,0,1-8-8V8A8,8,0,0,1,8,0Z" transform="translate(29.07 1330.799) rotate(-161)"/>
    <path id="Rectangle_80" data-name="Rectangle 80" class="cls-3" d="M8,4A4,4,0,0,0,4,8V65.434a4,4,0,0,0,4,4H65.434a4,4,0,0,0,4-4V8a4,4,0,0,0-4-4H8M8,0H65.434a8,8,0,0,1,8,8V65.434a8,8,0,0,1-8,8H8a8,8,0,0,1-8-8V8A8,8,0,0,1,8,0Z" transform="translate(38.707 2206.279) rotate(-161)"/>
    <path id="Rectangle_53" data-name="Rectangle 53" class="cls-3" d="M8,4A4,4,0,0,0,4,8V91.747a4,4,0,0,0,4,4H91.747a4,4,0,0,0,4-4V8a4,4,0,0,0-4-4H8M8,0H91.747a8,8,0,0,1,8,8V91.747a8,8,0,0,1-8,8H8a8,8,0,0,1-8-8V8A8,8,0,0,1,8,0Z" transform="translate(-12.5 599.56)"/>
    <path id="Rectangle_56" data-name="Rectangle 56" class="cls-3" d="M8,4A4,4,0,0,0,4,8V85a4,4,0,0,0,4,4H85a4,4,0,0,0,4-4V8a4,4,0,0,0-4-4H8M8,0H85a8,8,0,0,1,8,8V85a8,8,0,0,1-8,8H8a8,8,0,0,1-8-8V8A8,8,0,0,1,8,0Z" transform="translate(82.388 774.56) rotate(83)"/>
    <path id="Rectangle_54" data-name="Rectangle 54" class="cls-4" d="M8,4A4,4,0,0,0,4,8V67.959a4,4,0,0,0,4,4H67.959a4,4,0,0,0,4-4V8a4,4,0,0,0-4-4H8M8,0H67.959a8,8,0,0,1,8,8V67.959a8,8,0,0,1-8,8H8a8,8,0,0,1-8-8V8A8,8,0,0,1,8,0Z" transform="translate(-29.389 679.246) rotate(-28)"/>
    <path id="Rectangle_57" data-name="Rectangle 57" class="cls-4" d="M8,4A4,4,0,0,0,4,8V44.959a4,4,0,0,0,4,4H44.959a4,4,0,0,0,4-4V8a4,4,0,0,0-4-4H8M8,0H44.959a8,8,0,0,1,8,8V44.959a8,8,0,0,1-8,8H8a8,8,0,0,1-8-8V8A8,8,0,0,1,8,0Z" transform="translate(-11.811 889.107) rotate(-28)"/>
    <path id="Rectangle_58" data-name="Rectangle 58" class="cls-2" d="M8,4A4,4,0,0,0,4,8V68.959a4,4,0,0,0,4,4H68.959a4,4,0,0,0,4-4V8a4,4,0,0,0-4-4H8M8,0H68.959a8,8,0,0,1,8,8V68.959a8,8,0,0,1-8,8H8a8,8,0,0,1-8-8V8A8,8,0,0,1,8,0Z" transform="translate(34.014 891.841) rotate(9)"/>
    <path id="Rectangle_47" data-name="Rectangle 47" class="cls-3" d="M8,4A4,4,0,0,0,4,8v99a4,4,0,0,0,4,4h99a4,4,0,0,0,4-4V8a4,4,0,0,0-4-4H8M8,0h99a8,8,0,0,1,8,8v99a8,8,0,0,1-8,8H8a8,8,0,0,1-8-8V8A8,8,0,0,1,8,0Z" transform="translate(10.634 231.802) rotate(20)"/>
    <path id="Rectangle_49" data-name="Rectangle 49" class="cls-1" d="M8,4A4,4,0,0,0,4,8V85a4,4,0,0,0,4,4H85a4,4,0,0,0,4-4V8a4,4,0,0,0-4-4H8M8,0H85a8,8,0,0,1,8,8V85a8,8,0,0,1-8,8H8a8,8,0,0,1-8-8V8A8,8,0,0,1,8,0Z" transform="translate(82.388 438.254) rotate(83)"/>
    <path id="Rectangle_48" data-name="Rectangle 48" class="cls-4" d="M8,4A4,4,0,0,0,4,8V67.959a4,4,0,0,0,4,4H67.959a4,4,0,0,0,4-4V8a4,4,0,0,0-4-4H8M8,0H67.959a8,8,0,0,1,8,8V67.959a8,8,0,0,1-8,8H8a8,8,0,0,1-8-8V8A8,8,0,0,1,8,0Z" transform="translate(-28.118 378.8) rotate(-28)"/>
    <path id="Rectangle_50" data-name="Rectangle 50" class="cls-4" d="M8,4A4,4,0,0,0,4,8V44.959a4,4,0,0,0,4,4H44.959a4,4,0,0,0,4-4V8a4,4,0,0,0-4-4H8M8,0H44.959a8,8,0,0,1,8,8V44.959a8,8,0,0,1-8,8H8a8,8,0,0,1-8-8V8A8,8,0,0,1,8,0Z" transform="translate(-11.811 552.8) rotate(-28)"/>
    <path id="Rectangle_52" data-name="Rectangle 52" class="cls-2" d="M8,4A4,4,0,0,0,4,8V68.959a4,4,0,0,0,4,4H68.959a4,4,0,0,0,4-4V8a4,4,0,0,0-4-4H8M8,0H68.959a8,8,0,0,1,8,8V68.959a8,8,0,0,1-8,8H8a8,8,0,0,1-8-8V8A8,8,0,0,1,8,0Z" transform="translate(34.014 555.535) rotate(9)"/>
    <path id="Rectangle_51" data-name="Rectangle 51" class="cls-2" d="M8,4A4,4,0,0,0,4,8V63.4a4,4,0,0,0,4,4H63.4a4,4,0,0,0,4-4V8a4,4,0,0,0-4-4H8M8,0H63.4a8,8,0,0,1,8,8V63.4a8,8,0,0,1-8,8H8a8,8,0,0,1-8-8V8A8,8,0,0,1,8,0Z" transform="translate(32.308 400.491) rotate(19)"/>
    <path id="Rectangle_67" data-name="Rectangle 67" class="cls-4" d="M8,4A4,4,0,0,0,4,8V91.747a4,4,0,0,0,4,4H91.746a4,4,0,0,0,4-4V8a4,4,0,0,0-4-4H8M8,0H91.746a8,8,0,0,1,8,8V91.747a8,8,0,0,1-8,8H8a8,8,0,0,1-8-8V8A8,8,0,0,1,8,0Z" transform="matrix(0.819, 0.574, -0.574, 0.819, 31.016, 1462.312)"/>
    <path id="Rectangle_84" data-name="Rectangle 84" class="cls-5" d="M8,4A4,4,0,0,0,4,8V77.741a4,4,0,0,0,4,4H77.74a4,4,0,0,0,4-4V8a4,4,0,0,0-4-4H8M8,0H77.74a8,8,0,0,1,8,8V77.741a8,8,0,0,1-8,8H8a8,8,0,0,1-8-8V8A8,8,0,0,1,8,0Z" transform="matrix(0.819, 0.574, -0.574, 0.819, 20.263, 2306.15)"/>
    <path id="Rectangle_68" data-name="Rectangle 68" class="cls-2" d="M8,4A4,4,0,0,0,4,8V67.959a4,4,0,0,0,4,4H67.958a4,4,0,0,0,4-4V8a4,4,0,0,0-4-4H8M8,0H67.958a8,8,0,0,1,8,8V67.959a8,8,0,0,1-8,8H8a8,8,0,0,1-8-8V8A8,8,0,0,1,8,0Z" transform="matrix(-0.883, 0.469, -0.469, -0.883, 110.025, 1486.959)"/>
    <path id="Rectangle_83" data-name="Rectangle 83" class="cls-4" d="M8,4A4,4,0,0,0,4,8V67.959a4,4,0,0,0,4,4H67.958a4,4,0,0,0,4-4V8a4,4,0,0,0-4-4H8M8,0H67.958a8,8,0,0,1,8,8V67.959a8,8,0,0,1-8,8H8a8,8,0,0,1-8-8V8A8,8,0,0,1,8,0Z" transform="translate(106.332 2381.543) rotate(173)"/>
    <path id="Rectangle_69" data-name="Rectangle 69" class="cls-1" d="M8,4A4,4,0,0,0,4,8v99a4,4,0,0,0,4,4h99a4,4,0,0,0,4-4V8a4,4,0,0,0-4-4H8M8,0h99a8,8,0,0,1,8,8v99a8,8,0,0,1-8,8H8a8,8,0,0,1-8-8V8A8,8,0,0,1,8,0Z" transform="matrix(-0.966, 0.259, -0.259, -0.966, 101.829, 1889.363)"/>
    <path id="Rectangle_90" data-name="Rectangle 90" class="cls-1" d="M8,4A4,4,0,0,0,4,8v99a4,4,0,0,0,4,4h99a4,4,0,0,0,4-4V8a4,4,0,0,0-4-4H8M8,0h99a8,8,0,0,1,8,8v99a8,8,0,0,1-8,8H8a8,8,0,0,1-8-8V8A8,8,0,0,1,8,0Z" transform="translate(54.757 2771.804) rotate(-159)"/>
    <path id="Rectangle_70" data-name="Rectangle 70" class="cls-2" d="M8,4A4,4,0,0,0,4,8V72.053a4,4,0,0,0,4,4H72.054a4,4,0,0,0,4-4V8a4,4,0,0,0-4-4H8M8,0H72.054a8,8,0,0,1,8,8V72.053a8,8,0,0,1-8,8H8a8,8,0,0,1-8-8V8A8,8,0,0,1,8,0Z" transform="translate(-25.397 1687.681) rotate(-62)"/>
    <path id="Rectangle_87" data-name="Rectangle 87" class="cls-4" d="M8,4A4,4,0,0,0,4,8V72.053a4,4,0,0,0,4,4H72.054a4,4,0,0,0,4-4V8a4,4,0,0,0-4-4H8M8,0H72.054a8,8,0,0,1,8,8V72.053a8,8,0,0,1-8,8H8a8,8,0,0,1-8-8V8A8,8,0,0,1,8,0Z" transform="translate(-35.121 2556.494) rotate(-62)"/>
    <path id="Rectangle_71" data-name="Rectangle 71" class="cls-3" d="M8,4A4,4,0,0,0,4,8V63.594a4,4,0,0,0,4,4H63.594a4,4,0,0,0,4-4V8a4,4,0,0,0-4-4H8M8,0H63.594a8,8,0,0,1,8,8V63.594a8,8,0,0,1-8,8H8a8,8,0,0,1-8-8V8A8,8,0,0,1,8,0Z" transform="translate(33.03 1816.267) rotate(-139)"/>
    <path id="Rectangle_89" data-name="Rectangle 89" class="cls-3" d="M8,4A4,4,0,0,0,4,8V63.594a4,4,0,0,0,4,4H63.594a4,4,0,0,0,4-4V8a4,4,0,0,0-4-4H8M8,0H63.594a8,8,0,0,1,8,8V63.594a8,8,0,0,1-8,8H8a8,8,0,0,1-8-8V8A8,8,0,0,1,8,0Z" transform="translate(23.306 2685.081) rotate(-139)"/>
    <path id="Rectangle_72" data-name="Rectangle 72" class="cls-3" d="M8,4A4,4,0,0,0,4,8V44.959a4,4,0,0,0,4,4H44.958a4,4,0,0,0,4-4V8a4,4,0,0,0-4-4H8M8,0H44.958a8,8,0,0,1,8,8V44.959a8,8,0,0,1-8,8H8a8,8,0,0,1-8-8V8A8,8,0,0,1,8,0Z" transform="matrix(-0.961, -0.276, 0.276, -0.961, 64.791, 1660.208)"/>
    <path id="Rectangle_86" data-name="Rectangle 86" class="cls-3" d="M8,4A4,4,0,0,0,4,8V44.959a4,4,0,0,0,4,4H44.958a4,4,0,0,0,4-4V8a4,4,0,0,0-4-4H8M8,0H44.958a8,8,0,0,1,8,8V44.959a8,8,0,0,1-8,8H8a8,8,0,0,1-8-8V8A8,8,0,0,1,8,0Z" transform="matrix(-0.961, -0.276, 0.276, -0.961, 55.067, 2529.022)"/>
    <path id="Rectangle_73" data-name="Rectangle 73" class="cls-1" d="M8,4A4,4,0,0,0,4,8V68.959a4,4,0,0,0,4,4H68.958a4,4,0,0,0,4-4V8a4,4,0,0,0-4-4H8M8,0H68.958a8,8,0,0,1,8,8V68.959a8,8,0,0,1-8,8H8a8,8,0,0,1-8-8V8A8,8,0,0,1,8,0Z" transform="translate(46.624 1625.67) rotate(-171)"/>
    <path id="Rectangle_85" data-name="Rectangle 85" class="cls-1" d="M8,4A4,4,0,0,0,4,8V68.959a4,4,0,0,0,4,4H68.958a4,4,0,0,0,4-4V8a4,4,0,0,0-4-4H8M8,0H68.958a8,8,0,0,1,8,8V68.959a8,8,0,0,1-8,8H8a8,8,0,0,1-8-8V8A8,8,0,0,1,8,0Z" transform="translate(36.9 2494.483) rotate(-171)"/>
    <path id="Rectangle_74" data-name="Rectangle 74" class="cls-4" d="M8,4A4,4,0,0,0,4,8V44.959a4,4,0,0,0,4,4H44.958a4,4,0,0,0,4-4V8a4,4,0,0,0-4-4H8M8,0H44.958a8,8,0,0,1,8,8V44.959a8,8,0,0,1-8,8H8a8,8,0,0,1-8-8V8A8,8,0,0,1,8,0Z" transform="translate(40.362 1730.973) rotate(163)"/>
    <path id="Rectangle_88" data-name="Rectangle 88" class="cls-5" d="M8,4A4,4,0,0,0,4,8V37.522a4,4,0,0,0,4,4H37.522a4,4,0,0,0,4-4V8a4,4,0,0,0-4-4H8M8,0H37.522a8,8,0,0,1,8,8V37.522a8,8,0,0,1-8,8H8a8,8,0,0,1-8-8V8A8,8,0,0,1,8,0Z" transform="translate(40.31 2599.189) rotate(163)"/>
    <path id="Rectangle_123" data-name="Rectangle 123" class="cls-5" d="M8,4A4,4,0,0,0,4,8V58.258a4,4,0,0,0,4,4H58.258a4,4,0,0,0,4-4V8a4,4,0,0,0-4-4H8M8,0H58.258a8,8,0,0,1,8,8V58.258a8,8,0,0,1-8,8H8a8,8,0,0,1-8-8V8A8,8,0,0,1,8,0Z" transform="translate(13.87 2803.958) rotate(-120)"/>
    <path id="Rectangle_124" data-name="Rectangle 124" class="cls-3" d="M8,4A4,4,0,0,0,4,8V59.513a4,4,0,0,0,4,4H59.513a4,4,0,0,0,4-4V8a4,4,0,0,0-4-4H8M8,0H59.513a8,8,0,0,1,8,8V59.513a8,8,0,0,1-8,8H8a8,8,0,0,1-8-8V8A8,8,0,0,1,8,0Z" transform="translate(35.021 2860.82) rotate(-146)"/>
    <path id="Rectangle_143" data-name="Rectangle 143" class="cls-1" d="M8,4A4,4,0,0,0,4,8V99.753a4,4,0,0,0,4,4H99.752a4,4,0,0,0,4-4V8a4,4,0,0,0-4-4H8M8,0H99.752a8,8,0,0,1,8,8V99.753a8,8,0,0,1-8,8H8a8,8,0,0,1-8-8V8A8,8,0,0,1,8,0Z" transform="translate(-0.521 2896.681) rotate(20)"/>
    <path id="Rectangle_144" data-name="Rectangle 144" class="cls-4" d="M8,4A4,4,0,0,0,4,8V77.613a4,4,0,0,0,4,4H77.614a4,4,0,0,0,4-4V8a4,4,0,0,0-4-4H8M8,0H77.614a8,8,0,0,1,8,8V77.613a8,8,0,0,1-8,8H8a8,8,0,0,1-8-8V8A8,8,0,0,1,8,0Z" transform="matrix(-0.017, 1, -1, -0.017, 89.25, 3120.672)"/>
    <path id="Rectangle_145" data-name="Rectangle 145" class="cls-5" d="M8,4A4,4,0,0,0,4,8V53.541a4,4,0,0,0,4,4H53.541a4,4,0,0,0,4-4V8a4,4,0,0,0-4-4H8M8,0H53.541a8,8,0,0,1,8,8V53.541a8,8,0,0,1-8,8H8a8,8,0,0,1-8-8V8A8,8,0,0,1,8,0Z" transform="translate(21.742 2994.717) rotate(51)"/>
    <path id="Rectangle_146" data-name="Rectangle 146" class="cls-1" d="M8,4A4,4,0,0,0,4,8V56.234a4,4,0,0,0,4,4H56.234a4,4,0,0,0,4-4V8a4,4,0,0,0-4-4H8M8,0H56.234a8,8,0,0,1,8,8V56.234a8,8,0,0,1-8,8H8a8,8,0,0,1-8-8V8A8,8,0,0,1,8,0Z" transform="translate(-18.315 3178.026) rotate(16)"/>
    <path id="Rectangle_147" data-name="Rectangle 147" class="cls-5" d="M8,4A4,4,0,0,0,4,8V58.152a4,4,0,0,0,4,4H58.152a4,4,0,0,0,4-4V8a4,4,0,0,0-4-4H8M8,0H58.152a8,8,0,0,1,8,8V58.152a8,8,0,0,1-8,8H8a8,8,0,0,1-8-8V8A8,8,0,0,1,8,0Z" transform="translate(38.513 3155.244) rotate(29)"/>
    <path id="Rectangle_148" data-name="Rectangle 148" class="cls-3" d="M8,4A4,4,0,0,0,4,8V65.434a4,4,0,0,0,4,4H65.434a4,4,0,0,0,4-4V8a4,4,0,0,0-4-4H8M8,0H65.434a8,8,0,0,1,8,8V65.434a8,8,0,0,1-8,8H8a8,8,0,0,1-8-8V8A8,8,0,0,1,8,0Z" transform="translate(18.885 3038.877) rotate(19)"/>
    <path id="Rectangle_149" data-name="Rectangle 149" class="cls-5" d="M8,4A4,4,0,0,0,4,8V77.741a4,4,0,0,0,4,4H77.74a4,4,0,0,0,4-4V8a4,4,0,0,0-4-4H8M8,0H77.74a8,8,0,0,1,8,8V77.741a8,8,0,0,1-8,8H8a8,8,0,0,1-8-8V8A8,8,0,0,1,8,0Z" transform="matrix(-0.819, -0.574, 0.574, -0.819, 37.328, 2939.005)"/>
    <path id="Rectangle_150" data-name="Rectangle 150" class="cls-4" d="M8,4A4,4,0,0,0,4,8V67.959a4,4,0,0,0,4,4H67.958a4,4,0,0,0,4-4V8a4,4,0,0,0-4-4H8M8,0H67.958a8,8,0,0,1,8,8V67.959a8,8,0,0,1-8,8H8a8,8,0,0,1-8-8V8A8,8,0,0,1,8,0Z" transform="translate(-48.74 2863.613) rotate(-7)"/>
    <path id="Rectangle_151" data-name="Rectangle 151" class="cls-3" d="M8,4A4,4,0,0,0,4,8V42.063a4,4,0,0,0,4,4H42.063a4,4,0,0,0,4-4V8a4,4,0,0,0-4-4H8M8,0H42.063a8,8,0,0,1,8,8V42.063a8,8,0,0,1-8,8H8a8,8,0,0,1-8-8V8A8,8,0,0,1,8,0Z" transform="translate(61.443 3226.2) rotate(79)"/>
    <path id="Rectangle_152" data-name="Rectangle 152" class="cls-3" d="M8,4A4,4,0,0,0,4,8V91.747a4,4,0,0,0,4,4H91.746a4,4,0,0,0,4-4V8a4,4,0,0,0-4-4H8M8,0H91.746a8,8,0,0,1,8,8V91.747a8,8,0,0,1-8,8H8a8,8,0,0,1-8-8V8A8,8,0,0,1,8,0Z" transform="translate(-42.489 3884.51)"/>
    <path id="Rectangle_153" data-name="Rectangle 153" class="cls-2" d="M8,4A4,4,0,0,0,4,8V67.959a4,4,0,0,0,4,4H67.958a4,4,0,0,0,4-4V8a4,4,0,0,0-4-4H8M8,0H67.958a8,8,0,0,1,8,8V67.959a8,8,0,0,1-8,8H8a8,8,0,0,1-8-8V8A8,8,0,0,1,8,0Z" transform="matrix(0.883, 0.469, -0.469, 0.883, -23.718, 3837.502)"/>
    <path id="Rectangle_154" data-name="Rectangle 154" class="cls-2" d="M8,4A4,4,0,0,0,4,8V85a4,4,0,0,0,4,4H85a4,4,0,0,0,4-4V8a4,4,0,0,0-4-4H8M8,0H85a8,8,0,0,1,8,8V85a8,8,0,0,1-8,8H8a8,8,0,0,1-8-8V8A8,8,0,0,1,8,0Z" transform="translate(-39.908 4134.229) rotate(-83)"/>
    <path id="Rectangle_155" data-name="Rectangle 155" class="cls-1" d="M8,4A4,4,0,0,0,4,8V44.959a4,4,0,0,0,4,4H44.958a4,4,0,0,0,4-4V8a4,4,0,0,0-4-4H8M8,0H44.958a8,8,0,0,1,8,8V44.959a8,8,0,0,1-8,8H8a8,8,0,0,1-8-8V8A8,8,0,0,1,8,0Z" transform="translate(-38.74 4001.912) rotate(-16)"/>
    <path id="Rectangle_156" data-name="Rectangle 156" class="cls-4" d="M8,4A4,4,0,0,0,4,8V68.959a4,4,0,0,0,4,4H68.958a4,4,0,0,0,4-4V8a4,4,0,0,0-4-4H8M8,0H68.958a8,8,0,0,1,8,8V68.959a8,8,0,0,1-8,8H8a8,8,0,0,1-8-8V8A8,8,0,0,1,8,0Z" transform="translate(-8.015 3952.27) rotate(-9)"/>
    <path id="Rectangle_157" data-name="Rectangle 157" class="cls-3" d="M8,4A4,4,0,0,0,4,8V44.958a4,4,0,0,0,4,4H44.958a4,4,0,0,0,4-4V8a4,4,0,0,0-4-4H8M8,0H44.958a8,8,0,0,1,8,8V44.958a8,8,0,0,1-8,8H8a8,8,0,0,1-8-8V8A8,8,0,0,1,8,0Z" transform="translate(4.336 4138.337) rotate(-19)"/>
    <path id="Rectangle_158" data-name="Rectangle 158" class="cls-2" d="M8,4A4,4,0,0,0,4,8V91.747a4,4,0,0,0,4,4H91.746a4,4,0,0,0,4-4V8a4,4,0,0,0-4-4H8M8,0H91.746a8,8,0,0,1,8,8V91.747a8,8,0,0,1-8,8H8a8,8,0,0,1-8-8V8A8,8,0,0,1,8,0Z" transform="matrix(0.848, 0.53, -0.53, 0.848, 6.677, 3594.973)"/>
    <path id="Rectangle_159" data-name="Rectangle 159" class="cls-3" d="M8,4A4,4,0,0,0,4,8V99.753a4,4,0,0,0,4,4H99.752a4,4,0,0,0,4-4V8a4,4,0,0,0-4-4H8M8,0H99.752a8,8,0,0,1,8,8V99.753a8,8,0,0,1-8,8H8a8,8,0,0,1-8-8V8A8,8,0,0,1,8,0Z" transform="translate(83.968 3362.061) rotate(160)"/>
    <path id="Rectangle_160" data-name="Rectangle 160" class="cls-4" d="M8,4A4,4,0,0,0,4,8V77.613a4,4,0,0,0,4,4H77.614a4,4,0,0,0,4-4V8a4,4,0,0,0-4-4H8M8,0H77.614a8,8,0,0,1,8,8V77.613a8,8,0,0,1-8,8H8a8,8,0,0,1-8-8V8A8,8,0,0,1,8,0Z" transform="matrix(0.017, 1, -1, 0.017, 42.944, 3483.304)"/>
    <path id="Rectangle_161" data-name="Rectangle 161" class="cls-5" d="M8,4A4,4,0,0,0,4,8V53.541a4,4,0,0,0,4,4H53.541a4,4,0,0,0,4-4V8a4,4,0,0,0-4-4H8M8,0H53.541a8,8,0,0,1,8,8V53.541a8,8,0,0,1-8,8H8a8,8,0,0,1-8-8V8A8,8,0,0,1,8,0Z" transform="translate(72.678 3397.573) rotate(129)"/>
    <path id="Rectangle_162" data-name="Rectangle 162" class="cls-1" d="M8,4A4,4,0,0,0,4,8V56.234a4,4,0,0,0,4,4H56.234a4,4,0,0,0,4-4V8a4,4,0,0,0-4-4H8M8,0H56.234a8,8,0,0,1,8,8V56.234a8,8,0,0,1-8,8H8a8,8,0,0,1-8-8V8A8,8,0,0,1,8,0Z" transform="translate(82.614 3603.898) rotate(164)"/>
    <path id="Rectangle_163" data-name="Rectangle 163" class="cls-3" d="M8,4A4,4,0,0,0,4,8V58.152a4,4,0,0,0,4,4H58.152a4,4,0,0,0,4-4V8a4,4,0,0,0-4-4H8M8,0H58.152a8,8,0,0,1,8,8V58.152a8,8,0,0,1-8,8H8a8,8,0,0,1-8-8V8A8,8,0,0,1,8,0Z" transform="translate(33.031 3591.83) rotate(171)"/>
    <path id="Rectangle_164" data-name="Rectangle 164" class="cls-1" d="M8,4A4,4,0,0,0,4,8V65.434a4,4,0,0,0,4,4H65.434a4,4,0,0,0,4-4V8a4,4,0,0,0-4-4H8M8,0H65.434a8,8,0,0,1,8,8V65.434a8,8,0,0,1-8,8H8a8,8,0,0,1-8-8V8A8,8,0,0,1,8,0Z" transform="translate(51.617 3472.436) rotate(161)"/>
    <path id="Rectangle_165" data-name="Rectangle 165" class="cls-2" d="M8,4A4,4,0,0,0,4,8V72.053a4,4,0,0,0,4,4H72.054a4,4,0,0,0,4-4V8a4,4,0,0,0-4-4H8M8,0H72.054a8,8,0,0,1,8,8V72.053a8,8,0,0,1-8,8H8a8,8,0,0,1-8-8V8A8,8,0,0,1,8,0Z" transform="matrix(0.469, -0.883, 0.883, 0.469, -25.362, 3825.734)"/>
    <path id="Rectangle_166" data-name="Rectangle 166" class="cls-3" d="M8,4A4,4,0,0,0,4,8V44.959a4,4,0,0,0,4,4H44.958a4,4,0,0,0,4-4V8a4,4,0,0,0-4-4H8M8,0H44.958a8,8,0,0,1,8,8V44.959a8,8,0,0,1-8,8H8a8,8,0,0,1-8-8V8A8,8,0,0,1,8,0Z" transform="translate(64.826 3798.262) rotate(-164)"/>
    <path id="Rectangle_167" data-name="Rectangle 167" class="cls-1" d="M8,4A4,4,0,0,0,4,8V68.958a4,4,0,0,0,4,4H68.958a4,4,0,0,0,4-4V8a4,4,0,0,0-4-4H8M8,0H68.958a8,8,0,0,1,8,8V68.958a8,8,0,0,1-8,8H8a8,8,0,0,1-8-8V8A8,8,0,0,1,8,0Z" transform="translate(46.659 3763.723) rotate(-171)"/>
    <path id="Rectangle_168" data-name="Rectangle 168" class="cls-4" d="M8,4A4,4,0,0,0,4,8V44.958a4,4,0,0,0,4,4H44.958a4,4,0,0,0,4-4V8a4,4,0,0,0-4-4H8M8,0H44.958a8,8,0,0,1,8,8V44.958a8,8,0,0,1-8,8H8a8,8,0,0,1-8-8V8A8,8,0,0,1,8,0Z" transform="translate(40.397 3869.027) rotate(163)"/>
  </g>
</svg>
