<svg xmlns="http://www.w3.org/2000/svg" xmlns:xlink="http://www.w3.org/1999/xlink" width="701.02" height="61.42" viewBox="0 0 701.02 61.42">
  <defs>
    <style>
      .cls-1 {
        stroke: #707070;
        fill: url(#linear-gradient);
      }
    </style>
    <linearGradient id="linear-gradient" y1="0.5" x2="1" y2="0.5" gradientUnits="objectBoundingBox">
      <stop offset="0" stop-color="#c400ff"/>
      <stop offset="1" stop-color="#e24e56"/>
    </linearGradient>
  </defs>
  <path id="Path_2" data-name="Path 2" class="cls-1" d="M36.48-21.9a11.776,11.776,0,0,1,5.64,3.93,10.312,10.312,0,0,1,2.04,6.45A9.683,9.683,0,0,1,39.72-3Q35.28,0,26.88,0H4.2V-42H25.68q8.04,0,12.24,2.97a9.322,9.322,0,0,1,4.2,8.01,9.978,9.978,0,0,1-1.47,5.37A10.28,10.28,0,0,1,36.48-21.9ZM15.96-33.42v8.1h8.16q6,0,6-4.08,0-4.02-6-4.02ZM25.92-8.58q6.24,0,6.24-4.26T25.92-17.1H15.96v8.52ZM50.34-42H62.22V0H50.34Zm29.28,9.42H66.72V-42h37.62v9.42H91.5V0H79.62ZM123.42.84a38.829,38.829,0,0,1-9.9-1.26,24.35,24.35,0,0,1-7.8-3.36l3.9-8.76a25.236,25.236,0,0,0,6.54,3,24.9,24.9,0,0,0,7.32,1.14q6.84,0,6.84-3.42a2.832,2.832,0,0,0-1.95-2.67,35.86,35.86,0,0,0-6.27-1.83,59.845,59.845,0,0,1-7.92-2.19,13.331,13.331,0,0,1-5.46-3.75,10.133,10.133,0,0,1-2.28-6.96,12.049,12.049,0,0,1,2.1-6.93,14.053,14.053,0,0,1,6.27-4.89,25.808,25.808,0,0,1,10.23-1.8,36.087,36.087,0,0,1,8.16.93,24.988,24.988,0,0,1,7.08,2.73l-3.66,8.82a24.451,24.451,0,0,0-11.64-3.24,9.758,9.758,0,0,0-5.16,1.05,3.148,3.148,0,0,0-1.62,2.73,2.707,2.707,0,0,0,1.92,2.52,34.715,34.715,0,0,0,6.18,1.74,57.894,57.894,0,0,1,7.95,2.19,13.728,13.728,0,0,1,5.46,3.72,9.935,9.935,0,0,1,2.31,6.93,11.814,11.814,0,0,1-2.1,6.84,14.315,14.315,0,0,1-6.3,4.89A25.482,25.482,0,0,1,123.42.84ZM184.14-42a23.955,23.955,0,0,1,9.9,1.89,14.681,14.681,0,0,1,6.48,5.4,14.805,14.805,0,0,1,2.28,8.25,14.659,14.659,0,0,1-2.28,8.22,14.754,14.754,0,0,1-6.48,5.37,23.955,23.955,0,0,1-9.9,1.89h-7.32V0H164.94V-42Zm-.72,21.66a8.3,8.3,0,0,0,5.52-1.59,5.633,5.633,0,0,0,1.86-4.53,5.724,5.724,0,0,0-1.86-4.56,8.193,8.193,0,0,0-5.52-1.62h-6.6v12.3Zm24.9-12.18h11.4V0h-11.4Zm5.7-3.6a7.217,7.217,0,0,1-5.04-1.74,5.594,5.594,0,0,1-1.92-4.32,5.594,5.594,0,0,1,1.92-4.32,7.217,7.217,0,0,1,5.04-1.74,7.462,7.462,0,0,1,5.04,1.65,5.326,5.326,0,0,1,1.92,4.23,5.818,5.818,0,0,1-1.92,4.47A7.142,7.142,0,0,1,214.02-36.12Zm13.08-8.4h11.4V0H227.1Zm32.64,11.46q8.1,0,12.36,3.69t4.26,11.31V0H265.74V-4.2Q263.28.54,256.14.54A15.023,15.023,0,0,1,249.6-.78a9.694,9.694,0,0,1-4.17-3.57,9.457,9.457,0,0,1-1.41-5.13,8.325,8.325,0,0,1,3.54-7.17q3.54-2.55,10.92-2.55h6.48q-.3-5.16-6.9-5.16a15.83,15.83,0,0,0-4.74.75,12.63,12.63,0,0,0-4.08,2.07l-3.84-7.74a21.269,21.269,0,0,1,6.57-2.79A31.239,31.239,0,0,1,259.74-33.06Zm-.42,26.4a6.314,6.314,0,0,0,3.48-.96,5.344,5.344,0,0,0,2.16-2.82v-2.82h-4.92q-4.98,0-4.98,3.3a2.9,2.9,0,0,0,1.14,2.4A4.907,4.907,0,0,0,259.32-6.66Zm45.42-26.4a13.364,13.364,0,0,1,9.75,3.6q3.69,3.6,3.69,10.86V0h-11.4V-16.74q0-6.66-5.34-6.66a6.1,6.1,0,0,0-4.71,1.92q-1.77,1.92-1.77,5.76V0h-11.4V-32.52h10.86v3.54a12.922,12.922,0,0,1,4.56-3.03A15.448,15.448,0,0,1,304.74-33.06Zm20.58.54h11.4V0h-11.4Zm5.7-3.6a7.217,7.217,0,0,1-5.04-1.74,5.594,5.594,0,0,1-1.92-4.32,5.594,5.594,0,0,1,1.92-4.32,7.217,7.217,0,0,1,5.04-1.74,7.462,7.462,0,0,1,5.04,1.65,5.326,5.326,0,0,1,1.92,4.23,5.819,5.819,0,0,1-1.92,4.47A7.142,7.142,0,0,1,331.02-36.12ZM402.06-42V0H390.18V-16.38h-16.2V0H362.1V-42h11.88v15.78h16.2V-42Zm42.12,9.48L430.14,1.32q-2.46,6-6,8.43a14.9,14.9,0,0,1-8.64,2.43,17.434,17.434,0,0,1-5.19-.81,12.5,12.5,0,0,1-4.23-2.13l3.96-7.98a6.894,6.894,0,0,0,2.31,1.41,7.671,7.671,0,0,0,2.73.51,4.938,4.938,0,0,0,2.67-.66,5.066,5.066,0,0,0,1.77-2.1L405.6-32.52h11.7l7.98,19.86,8.04-19.86Zm36.6-12V0H469.92V-3.24Q466.74.54,460.38.54a16.166,16.166,0,0,1-8.1-2.07,14.969,14.969,0,0,1-5.79-5.91,18,18,0,0,1-2.13-8.88,17.835,17.835,0,0,1,2.13-8.85,14.812,14.812,0,0,1,5.79-5.85,16.353,16.353,0,0,1,8.1-2.04q5.82,0,9,3.36V-44.52Zm-18,36a6.342,6.342,0,0,0,4.86-2.07,8.1,8.1,0,0,0,1.92-5.73,7.98,7.98,0,0,0-1.89-5.64A6.362,6.362,0,0,0,462.78-24a6.457,6.457,0,0,0-4.92,2.04,7.9,7.9,0,0,0-1.92,5.64,8.1,8.1,0,0,0,1.92,5.73A6.411,6.411,0,0,0,462.78-8.52Zm58.56-7.68q0,.12-.18,2.82H497.52a6.617,6.617,0,0,0,2.79,3.87,9.315,9.315,0,0,0,5.19,1.35,11.235,11.235,0,0,0,4.05-.66A11.949,11.949,0,0,0,513-10.98l6,6.24Q514.26.54,505.14.54a22.128,22.128,0,0,1-10.02-2.16,16.132,16.132,0,0,1-6.69-6,16.226,16.226,0,0,1-2.37-8.7,16.277,16.277,0,0,1,2.31-8.61,16.14,16.14,0,0,1,6.39-5.97,19.314,19.314,0,0,1,9.18-2.16,19.2,19.2,0,0,1,8.82,2.01,15.292,15.292,0,0,1,6.27,5.82A17.083,17.083,0,0,1,521.34-16.2ZM504-24.96a6.585,6.585,0,0,0-4.41,1.5,6.773,6.773,0,0,0-2.25,4.08h13.32a6.773,6.773,0,0,0-2.25-4.08A6.585,6.585,0,0,0,504-24.96Zm33.48-3.66a10.61,10.61,0,0,1,4.53-3.33,17.186,17.186,0,0,1,6.39-1.11V-22.8a23.306,23.306,0,0,0-2.58-.18A7.95,7.95,0,0,0,540.09-21q-2.07,1.98-2.07,6.06V0h-11.4V-32.52h10.86Zm29.22-4.44q8.1,0,12.36,3.69t4.26,11.31V0H572.7V-4.2Q570.24.54,563.1.54a15.023,15.023,0,0,1-6.54-1.32,9.694,9.694,0,0,1-4.17-3.57,9.457,9.457,0,0,1-1.41-5.13,8.325,8.325,0,0,1,3.54-7.17q3.54-2.55,10.92-2.55h6.48q-.3-5.16-6.9-5.16a15.83,15.83,0,0,0-4.74.75,12.63,12.63,0,0,0-4.08,2.07l-3.84-7.74a21.269,21.269,0,0,1,6.57-2.79A31.239,31.239,0,0,1,566.7-33.06Zm-.42,26.4a6.314,6.314,0,0,0,3.48-.96,5.344,5.344,0,0,0,2.16-2.82v-2.82H567q-4.98,0-4.98,3.3a2.9,2.9,0,0,0,1.14,2.4A4.907,4.907,0,0,0,566.28-6.66Zm44.7-26.4a16.186,16.186,0,0,1,8.07,2.04,14.871,14.871,0,0,1,5.76,5.85,17.835,17.835,0,0,1,2.13,8.85,18.005,18.005,0,0,1-2.13,8.88,15.03,15.03,0,0,1-5.76,5.91A16,16,0,0,1,610.98.54q-6.42,0-9.6-3.78V0H590.52V-44.52h11.4V-29.7Q605.22-33.06,610.98-33.06Zm-2.4,24.54a6.412,6.412,0,0,0,4.92-2.07,8.1,8.1,0,0,0,1.92-5.73,7.9,7.9,0,0,0-1.92-5.64A6.457,6.457,0,0,0,608.58-24a6.457,6.457,0,0,0-4.92,2.04,7.9,7.9,0,0,0-1.92,5.64,8.1,8.1,0,0,0,1.92,5.73A6.411,6.411,0,0,0,608.58-8.52Zm36.78-24.54q8.1,0,12.36,3.69t4.26,11.31V0H651.36V-4.2Q648.9.54,641.76.54a15.023,15.023,0,0,1-6.54-1.32,9.694,9.694,0,0,1-4.17-3.57,9.457,9.457,0,0,1-1.41-5.13,8.325,8.325,0,0,1,3.54-7.17q3.54-2.55,10.92-2.55h6.48q-.3-5.16-6.9-5.16a15.83,15.83,0,0,0-4.74.75,12.63,12.63,0,0,0-4.08,2.07l-3.84-7.74a21.269,21.269,0,0,1,6.57-2.79A31.239,31.239,0,0,1,645.36-33.06Zm-.42,26.4a6.314,6.314,0,0,0,3.48-.96,5.344,5.344,0,0,0,2.16-2.82v-2.82h-4.92q-4.98,0-4.98,3.3a2.9,2.9,0,0,0,1.14,2.4A4.907,4.907,0,0,0,644.94-6.66Zm59.28-37.86V0H693.36V-3.24Q690.18.54,683.82.54a16.166,16.166,0,0,1-8.1-2.07,14.969,14.969,0,0,1-5.79-5.91,18.005,18.005,0,0,1-2.13-8.88,17.835,17.835,0,0,1,2.13-8.85,14.812,14.812,0,0,1,5.79-5.85,16.353,16.353,0,0,1,8.1-2.04q5.82,0,9,3.36V-44.52Zm-18,36a6.343,6.343,0,0,0,4.86-2.07A8.1,8.1,0,0,0,693-16.32a7.98,7.98,0,0,0-1.89-5.64A6.362,6.362,0,0,0,686.22-24a6.457,6.457,0,0,0-4.92,2.04,7.9,7.9,0,0,0-1.92,5.64,8.1,8.1,0,0,0,1.92,5.73A6.411,6.411,0,0,0,686.22-8.52Z" transform="translate(-3.7 48.74)"/>
</svg>
