

<svg xmlns="http://www.w3.org/2000/svg" xmlns:xlink="http://www.w3.org/1999/xlink" width="1028.156" height="539.028" viewBox="0 0 1028.156 539.028">
  <defs>
    <ref id="img1" param="color" default="blue"/>
    <style>
      .cls-1 {
        fill: none;
      }

      .cls-2 {
        fill: #ce19c9;

      }

      .cls-3 {
        opacity: 0.996;
        fill: url(#pattern);
      }

      .cls-4 {
        fill: #da544f;
      } 

      .cls-5 {
        clip-path: url(#clip-path);
      }

      .cls-6 {
        fill: #fff;
      }
    </style>
    <pattern id="pattern" preserveAspectRatio="xMidYMid slice" width="100%" height="100%" viewBox="0 0 2048 1365">
      
      <!-- <image width="2048" height="1365"/> src="https://firebasestorage.googleapis.com/v0/b/doctor-web-b9c47.appspot.com/o/images%2Fa.jpg?alt=media&token=a57faf57-d20b-4808-b160-937db96abc5f"/> -->
      <image width="2048" height="1365" xlink:href="https://firebasestorage.googleapis.com/v0/b/doctor-web-b9c47.appspot.com/o/images%2Fa.jpg?alt=media&amp;token=a57faf57-d20b-4808-b160-937db96abc5f"/>
    </pattern>
    <clipPath id="clip-path">
      <rect class="cls-1" width="114.037" height="159.736"/>
    </clipPath>
  </defs>
  <g id="Group_25" data-name="Group 25" transform="translate(-846.5 -156.531)">
    <path id="Path_19" data-name="Path 19" class="cls-2" d="M132.8,54.922c44.1,0,58.621,51.647,86.967,71.292,21.728,15.058,62.915-7.135,62.915,26.05,0,76.286-63.281,138.127-141.341,138.127-40.958,0-34.453-50.476-42.46-86.643s-32.788,4.495-59.866,0S0,178.2,0,152.263C0,75.978,54.74,54.922,132.8,54.922Z" transform="translate(902.733 190.814)"/>
    <g id="Group_49" data-name="Group 49" transform="translate(2255.641 1035.484)">
      <path id="blob-3" class="cls-2" d="M71.474-23.391c12.4,12.557,19.55,28.928,29.246,49.749s21.616,46.253,16.689,68.664-26.861,41.643-51.339,48.16-51.5,0-66.915-15.418c-15.418-15.576-19.073-40.372-19.55-58.65-.318-18.12,2.543-29.722-3.974-51.657S-46.78-36.9-40.1-50.412C-33.588-64.081-4.5-58.995,18.7-52S59.235-35.948,71.474-23.391Z" transform="translate(-513.373 -625.35) rotate(25)"/>
      <path id="_83159889_3025020360843950_1523685411132538880_n" data-name="83159889_3025020360843950_1523685411132538880_n" class="cls-3" d="M126.1,37.015c66.011-21.441,75-4.037,72.311,11.2-3.821,21.649-40.4,52.563-20.535,64.338,10.428,6.182,46.84-60.981,94.52-64.338,55.921-3.938,36.5,66.97,160.334,77.683s178.587-66.905,255.76,18.815S733,321.759,733,321.759s90,60.115,90.57,110.431c.4,35.707,11.361,70.941-54.4,105.462C667.4,591.072,511.818,551.88,357.3,556.1c-88.217,2.407-176.886,8.852-253.1,0-189.585-81.689,19-241.827-22.256-317.326S43.634,63.8,126.1,37.015Z" transform="translate(-1260.489 -905.956)"/>
    </g>
    <path id="Path_18" data-name="Path 18" class="cls-4" d="M151.277,54.922c50.241,0,66.777,59.4,99.068,82,24.752,17.319,71.668-8.206,71.668,29.962,0,87.742-72.085,158.871-161.006,158.871-58.688,0-125.539-80.8-125.539-80.8S0,196.714,0,166.882C0,79.14,62.356,54.922,151.277,54.922Z" transform="translate(846.5 369.807)"/>
    <g id="Repeat_Grid_1" data-name="Repeat Grid 1" class="cls-5" transform="translate(984.719 385.786)">
      <g transform="translate(-881 -439)">
        <circle id="Ellipse_5" data-name="Ellipse 5" class="cls-6" cx="5" cy="5" r="5" transform="translate(881 439)"/>
      </g>
      <g transform="translate(-861 -439)">
        <circle id="Ellipse_5-2" data-name="Ellipse 5" class="cls-6" cx="5" cy="5" r="5" transform="translate(881 439)"/>
      </g>
      <g transform="translate(-841 -439)">
        <circle id="Ellipse_5-3" data-name="Ellipse 5" class="cls-6" cx="5" cy="5" r="5" transform="translate(881 439)"/>
      </g>
      <g transform="translate(-821 -439)">
        <circle id="Ellipse_5-4" data-name="Ellipse 5" class="cls-6" cx="5" cy="5" r="5" transform="translate(881 439)"/>
      </g>
      <g transform="translate(-801 -439)">
        <circle id="Ellipse_5-5" data-name="Ellipse 5" class="cls-6" cx="5" cy="5" r="5" transform="translate(881 439)"/>
      </g>
      <g transform="translate(-781 -439)">
        <circle id="Ellipse_5-6" data-name="Ellipse 5" class="cls-6" cx="5" cy="5" r="5" transform="translate(881 439)"/>
      </g>
      <g transform="translate(-881 -415)">
        <circle id="Ellipse_5-7" data-name="Ellipse 5" class="cls-6" cx="5" cy="5" r="5" transform="translate(881 439)"/>
      </g>
      <g transform="translate(-861 -415)">
        <circle id="Ellipse_5-8" data-name="Ellipse 5" class="cls-6" cx="5" cy="5" r="5" transform="translate(881 439)"/>
      </g>
      <g transform="translate(-841 -415)">
        <circle id="Ellipse_5-9" data-name="Ellipse 5" class="cls-6" cx="5" cy="5" r="5" transform="translate(881 439)"/>
      </g>
      <g transform="translate(-821 -415)">
        <circle id="Ellipse_5-10" data-name="Ellipse 5" class="cls-6" cx="5" cy="5" r="5" transform="translate(881 439)"/>
      </g>
      <g transform="translate(-801 -415)">
        <circle id="Ellipse_5-11" data-name="Ellipse 5" class="cls-6" cx="5" cy="5" r="5" transform="translate(881 439)"/>
      </g>
      <g transform="translate(-781 -415)">
        <circle id="Ellipse_5-12" data-name="Ellipse 5" class="cls-6" cx="5" cy="5" r="5" transform="translate(881 439)"/>
      </g>
      <g transform="translate(-881 -391)">
        <circle id="Ellipse_5-13" data-name="Ellipse 5" class="cls-6" cx="5" cy="5" r="5" transform="translate(881 439)"/>
      </g>
      <g transform="translate(-861 -391)">
        <circle id="Ellipse_5-14" data-name="Ellipse 5" class="cls-6" cx="5" cy="5" r="5" transform="translate(881 439)"/>
      </g>
      <g transform="translate(-841 -391)">
        <circle id="Ellipse_5-15" data-name="Ellipse 5" class="cls-6" cx="5" cy="5" r="5" transform="translate(881 439)"/>
      </g>
      <g transform="translate(-821 -391)">
        <circle id="Ellipse_5-16" data-name="Ellipse 5" class="cls-6" cx="5" cy="5" r="5" transform="translate(881 439)"/>
      </g>
      <g transform="translate(-801 -391)">
        <circle id="Ellipse_5-17" data-name="Ellipse 5" class="cls-6" cx="5" cy="5" r="5" transform="translate(881 439)"/>
      </g>
      <g transform="translate(-781 -391)">
        <circle id="Ellipse_5-18" data-name="Ellipse 5" class="cls-6" cx="5" cy="5" r="5" transform="translate(881 439)"/>
      </g>
      <g transform="translate(-881 -367)">
        <circle id="Ellipse_5-19" data-name="Ellipse 5" class="cls-6" cx="5" cy="5" r="5" transform="translate(881 439)"/>
      </g>
      <g transform="translate(-861 -367)">
        <circle id="Ellipse_5-20" data-name="Ellipse 5" class="cls-6" cx="5" cy="5" r="5" transform="translate(881 439)"/>
      </g>
      <g transform="translate(-841 -367)">
        <circle id="Ellipse_5-21" data-name="Ellipse 5" class="cls-6" cx="5" cy="5" r="5" transform="translate(881 439)"/>
      </g>
      <g transform="translate(-821 -367)">
        <circle id="Ellipse_5-22" data-name="Ellipse 5" class="cls-6" cx="5" cy="5" r="5" transform="translate(881 439)"/>
      </g>
      <g transform="translate(-801 -367)">
        <circle id="Ellipse_5-23" data-name="Ellipse 5" class="cls-6" cx="5" cy="5" r="5" transform="translate(881 439)"/>
      </g>
      <g transform="translate(-781 -367)">
        <circle id="Ellipse_5-24" data-name="Ellipse 5" class="cls-6" cx="5" cy="5" r="5" transform="translate(881 439)"/>
      </g>
      <g transform="translate(-881 -343)">
        <circle id="Ellipse_5-25" data-name="Ellipse 5" class="cls-6" cx="5" cy="5" r="5" transform="translate(881 439)"/>
      </g>
      <g transform="translate(-861 -343)">
        <circle id="Ellipse_5-26" data-name="Ellipse 5" class="cls-6" cx="5" cy="5" r="5" transform="translate(881 439)"/>
      </g>
      <g transform="translate(-841 -343)">
        <circle id="Ellipse_5-27" data-name="Ellipse 5" class="cls-6" cx="5" cy="5" r="5" transform="translate(881 439)"/>
      </g>
      <g transform="translate(-821 -343)">
        <circle id="Ellipse_5-28" data-name="Ellipse 5" class="cls-6" cx="5" cy="5" r="5" transform="translate(881 439)"/>
      </g>
      <g transform="translate(-801 -343)">
        <circle id="Ellipse_5-29" data-name="Ellipse 5" class="cls-6" cx="5" cy="5" r="5" transform="translate(881 439)"/>
      </g>
      <g transform="translate(-781 -343)">
        <circle id="Ellipse_5-30" data-name="Ellipse 5" class="cls-6" cx="5" cy="5" r="5" transform="translate(881 439)"/>
      </g>
      <g transform="translate(-881 -319)">
        <circle id="Ellipse_5-31" data-name="Ellipse 5" class="cls-6" cx="5" cy="5" r="5" transform="translate(881 439)"/>
      </g>
      <g transform="translate(-861 -319)">
        <circle id="Ellipse_5-32" data-name="Ellipse 5" class="cls-6" cx="5" cy="5" r="5" transform="translate(881 439)"/>
      </g>
      <g transform="translate(-841 -319)">
        <circle id="Ellipse_5-33" data-name="Ellipse 5" class="cls-6" cx="5" cy="5" r="5" transform="translate(881 439)"/>
      </g>
      <g transform="translate(-821 -319)">
        <circle id="Ellipse_5-34" data-name="Ellipse 5" class="cls-6" cx="5" cy="5" r="5" transform="translate(881 439)"/>
      </g>
      <g transform="translate(-801 -319)">
        <circle id="Ellipse_5-35" data-name="Ellipse 5" class="cls-6" cx="5" cy="5" r="5" transform="translate(881 439)"/>
      </g>
      <g transform="translate(-781 -319)">
        <circle id="Ellipse_5-36" data-name="Ellipse 5" class="cls-6" cx="5" cy="5" r="5" transform="translate(881 439)"/>
      </g>
      <g transform="translate(-881 -295)">
        <circle id="Ellipse_5-37" data-name="Ellipse 5" class="cls-6" cx="5" cy="5" r="5" transform="translate(881 439)"/>
      </g>
      <g transform="translate(-861 -295)">
        <circle id="Ellipse_5-38" data-name="Ellipse 5" class="cls-6" cx="5" cy="5" r="5" transform="translate(881 439)"/>
      </g>
      <g transform="translate(-841 -295)">
        <circle id="Ellipse_5-39" data-name="Ellipse 5" class="cls-6" cx="5" cy="5" r="5" transform="translate(881 439)"/>
      </g>
      <g transform="translate(-821 -295)">
        <circle id="Ellipse_5-40" data-name="Ellipse 5" class="cls-6" cx="5" cy="5" r="5" transform="translate(881 439)"/>
      </g>
      <g transform="translate(-801 -295)">
        <circle id="Ellipse_5-41" data-name="Ellipse 5" class="cls-6" cx="5" cy="5" r="5" transform="translate(881 439)"/>
      </g>
      <g transform="translate(-781 -295)">
        <circle id="Ellipse_5-42" data-name="Ellipse 5" class="cls-6" cx="5" cy="5" r="5" transform="translate(881 439)"/>
      </g>
    </g>
  </g>
</svg>
